<svg width="263" height="182" viewBox="0 0 263 182" fill="none" xmlns="http://www.w3.org/2000/svg">
<rect x="142.244" y="169.452" width="120.636" height="12.0476" fill="#868686" fill-opacity="0.4"/>
<rect x="142.244" y="163.429" width="120.636" height="12.0476" fill="#C4C4C4"/>
<path d="M151.654 0.5H174.859V128.143H151.654V0.5ZM204.269 84.7295H197.314V62.327H203.225C206.819 62.327 210.442 62.5744 212.297 62.327C215.372 61.9168 217.76 60.8075 220.092 58.1569C222.087 55.8905 222.374 50.9136 222.721 49.182C223.084 46.5983 223.084 44.1812 223.084 40.8417C223.084 37.5022 221.845 33.1451 221.498 31.4135C220.727 29.1925 219.105 26.9306 218.178 26.0648C217.25 25.1991 214.514 23.7528 212.659 23.5054C210.921 23.258 208.417 22.7106 204.592 22.7106H197.314V0.5H215.222C223.451 0.5 230.116 1.36579 235.216 3.09738C240.316 4.82897 244.257 7.4882 247.039 11.0751C249.589 14.4146 251.269 18.558 252.081 23.5054C253.008 28.4528 253.472 34.8226 253.472 42.6147C253.472 52.6332 252.602 60.3635 250.864 65.8057C248.43 72.732 241.359 77.4321 235.216 80.2768L253.472 128.143H219.568L204.269 84.7295Z" fill="#00B0F0"/>
<path d="M7.67284 61.6568V56.8743L32.0376 56.9672L99.8149 175.839V181.5H73.7467L7.67284 61.6568ZM78.9604 96.5913V56.9672H105.029V147.537L78.9604 96.5913ZM0.755798 85.2701L26.824 136.216V181.5H0.755798V85.2701Z" fill="#00B0F0"/>
</svg>
