<svg width="428" height="425" viewBox="0 0 428 425" fill="none" xmlns="http://www.w3.org/2000/svg">
<path d="M0.00012207 16.7867C0.00012207 7.95019 7.16357 0.786743 16.0001 0.786743H411.636C420.473 0.786743 427.636 7.95019 427.636 16.7867V408.215C427.636 417.052 420.473 424.215 411.636 424.215H16.0001C7.16354 424.215 0.00012207 417.052 0.00012207 408.215V16.7867Z" fill="#00B0F0"/>
<path d="M0 25.6072C0 16.7706 7.16344 9.60718 16 9.60718H411.636C420.473 9.60718 427.636 16.7706 427.636 25.6072V399.393C427.636 408.229 420.473 415.393 411.636 415.393H16C7.16342 415.393 0 408.229 0 399.393V25.6072Z" fill="#121212"/>
</svg>
