<!DOCTYPE svg PUBLIC "-//W3C//DTD SVG 20010904//EN" "http://www.w3.org/TR/2001/REC-SVG-20010904/DTD/svg10.dtd">
<svg version="1.0" xmlns="http://www.w3.org/2000/svg" width="200px" height="200px" viewBox="0 0 2000 2000" preserveAspectRatio="xMidYMid meet">
<g id="layer101" fill="#3f3c39" stroke="none">
<path d="M0 1000 l0 -1000 1000 0 1000 0 0 1000 0 1000 -1000 0 -1000 0 0 -1000z"/>
</g>
<g id="layer102" fill="#3f423c" stroke="none">
<path d="M0 1000 l0 -1000 1000 0 1000 0 0 1000 0 1000 -1000 0 -1000 0 0 -1000z m519 31 c6 -11 13 -52 17 -93 3 -40 13 -99 21 -132 8 -32 12 -65 9 -73 -8 -20 32 -112 63 -147 45 -49 132 -79 326 -111 101 -17 223 -18 304 -3 37 7 56 7 64 -1 20 -20 45 -12 85 27 29 28 46 58 67 121 22 63 35 85 52 92 13 5 28 20 35 34 18 39 24 34 57 -48 13 -32 14 -47 4 -46 -20 3 -24 -2 -13 -16 7 -8 16 -12 21 -9 13 8 11 -3 -7 -37 -8 -17 -14 -40 -14 -52 3 -37 1 -43 -29 -81 -16 -20 -32 -52 -35 -71 -8 -40 -12 -43 -58 -49 -18 -2 -58 -16 -88 -30 -29 -14 -62 -26 -72 -26 -21 0 -23 -11 -5 -29 10 -11 10 -13 0 -7 -8 4 -13 1 -13 -8 0 -9 -6 -16 -13 -16 -7 0 -18 -9 -25 -20 -15 -25 -4 -26 15 -3 13 17 14 17 11 -2 -3 -21 -40 -33 -133 -41 -46 -4 -49 -4 -31 11 11 8 26 15 34 15 7 0 12 6 10 13 -7 19 -67 21 -89 1 -15 -14 -25 -15 -59 -6 -26 6 -42 6 -46 0 -3 -5 -18 -7 -33 -3 -14 4 -63 8 -108 10 -81 4 -88 6 -176 59 -37 22 -37 23 -15 33 21 9 20 10 -15 17 -20 4 -41 4 -46 1 -6 -3 -13 0 -17 6 -5 8 -3 9 6 4 9 -5 11 -4 6 4 -4 6 -11 9 -15 6 -12 -7 -86 49 -112 84 -12 16 -27 27 -34 25 -8 -3 -12 4 -12 19 0 22 -34 76 -71 116 -9 9 -12 25 -8 45 4 17 9 57 13 89 5 51 9 60 35 73 22 12 28 20 22 32 -9 19 -8 76 2 134 4 24 13 39 24 43 10 3 23 19 29 35 12 35 45 41 60 11z m308 -18 c-4 -3 -10 -3 -14 0 -3 4 0 7 7 7 7 0 10 -3 7 -7z m22 -29 c2 -2 -14 -4 -37 -4 -23 0 -42 4 -42 10 0 9 69 4 79 -6z m730 -94 c0 -23 -8 -44 -24 -62 -13 -16 -26 -28 -28 -28 -4 0 1 34 24 145 l13 60 7 -40 c4 -22 8 -56 8 -75z m-279 80 c0 -5 -8 -10 -17 -10 -15 0 -16 2 -3 10 19 12 20 12 20 0z m37 -7 c-4 -3 -10 -3 -14 0 -3 4 0 7 7 7 7 0 10 -3 7 -7z m-447 -43 c0 -12 -8 -12 -35 0 -18 8 -17 9 8 9 15 1 27 -3 27 -9z m-390 -622 c0 -14 -19 1 -31 25 -12 22 -12 22 10 3 11 -11 21 -23 21 -28z m90 -25 c33 -21 62 -43 64 -50 4 -11 -98 52 -128 79 -23 20 9 5 64 -29z m917 10 c-4 -3 -10 -3 -14 0 -3 4 0 7 7 7 7 0 10 -3 7 -7z m-490 -129 c-3 -3 -12 -4 -19 -1 -8 3 -5 6 6 6 11 1 17 -2 13 -5z m-302 -14 c3 -5 1 -10 -4 -10 -6 0 -11 5 -11 10 0 6 2 10 4 10 3 0 8 -4 11 -10z"/>
<path d="M390 690 c0 -5 5 -10 10 -10 6 0 10 5 10 10 0 6 -4 10 -10 10 -5 0 -10 -4 -10 -10z"/>
<path d="M420 669 c-11 -25 -8 -30 59 -99 40 -40 75 -69 79 -65 4 4 -4 14 -17 24 -45 31 -71 64 -90 115 -19 51 -19 51 -31 25z"/>
<path d="M370 620 c0 -11 -4 -20 -10 -20 -5 0 -3 -8 5 -17 9 -10 40 -48 70 -84 30 -37 79 -83 109 -103 30 -20 56 -41 58 -46 2 -6 13 -12 25 -14 12 -3 32 -10 45 -17 30 -16 89 -29 82 -18 -3 5 -16 9 -29 9 -13 0 -28 6 -32 13 -9 14 -78 60 -105 70 -10 3 -18 14 -18 22 0 9 -4 13 -10 10 -5 -3 -17 4 -27 17 -10 12 -42 45 -70 73 -29 27 -59 67 -68 88 -17 41 -25 47 -25 17z"/>
<path d="M585 470 c-3 -5 1 -10 10 -10 9 0 13 5 10 10 -3 6 -8 10 -10 10 -2 0 -7 -4 -10 -10z"/>
<path d="M1375 371 c-11 -5 -23 -7 -27 -5 -4 3 -9 0 -13 -6 -4 -6 4 -10 19 -10 31 0 56 9 56 21 0 11 -8 10 -35 0z"/>
<path d="M1503 353 c4 -3 10 -3 14 0 3 4 0 7 -7 7 -7 0 -10 -3 -7 -7z"/>
</g>
<g id="layer103" fill="#4c443e" stroke="none">
<path d="M0 1000 l0 -1000 1000 0 1000 0 0 1000 0 1000 -1000 0 -1000 0 0 -1000z m519 31 c6 -11 13 -52 17 -93 3 -40 13 -99 21 -132 8 -32 12 -65 9 -73 -8 -20 32 -112 63 -147 45 -49 132 -79 326 -111 101 -17 223 -18 304 -3 37 7 56 7 64 -1 20 -20 45 -12 85 27 29 28 46 58 67 121 22 63 35 85 52 92 13 5 28 20 35 34 14 31 22 31 35 3 36 -76 52 -179 31 -205 -5 -6 -8 -18 -6 -25 4 -16 -32 -98 -42 -98 -4 0 -7 -12 -7 -27 0 -26 -35 -62 -60 -63 -7 0 -13 -7 -13 -15 0 -8 -6 -14 -12 -12 -7 1 -12 -6 -12 -15 1 -10 -6 -20 -16 -23 -10 -3 -21 -12 -24 -20 -3 -8 -18 -15 -33 -15 -32 0 -85 -32 -93 -55 -5 -13 -25 -17 -100 -21 -86 -4 -93 -3 -76 11 11 8 26 15 34 15 7 0 12 6 10 13 -7 19 -67 21 -89 1 -15 -14 -25 -15 -58 -7 -24 7 -43 7 -49 1 -5 -5 -27 -5 -56 2 -26 5 -57 8 -69 5 -36 -9 -112 10 -162 41 -127 79 -198 130 -227 163 -18 20 -38 35 -46 33 -9 -2 -13 2 -9 10 3 8 -4 25 -14 39 -10 13 -19 29 -19 34 0 6 -12 23 -26 40 -20 23 -24 37 -19 60 3 16 8 56 12 88 5 51 9 60 35 73 22 12 28 20 22 32 -9 19 -8 76 2 134 4 24 13 39 24 43 10 3 23 19 29 35 12 35 45 41 60 11z m308 -18 c-4 -3 -10 -3 -14 0 -3 4 0 7 7 7 7 0 10 -3 7 -7z m478 -2 c3 -5 1 -12 -5 -16 -5 -3 -10 1 -10 9 0 18 6 21 15 7z m-456 -27 c2 -2 -14 -4 -37 -4 -23 0 -42 4 -42 10 0 9 69 4 79 -6z m730 -94 c0 -23 -8 -44 -24 -62 -13 -16 -26 -28 -28 -28 -4 0 1 34 24 145 l13 60 7 -40 c4 -22 8 -56 8 -75z m-279 78 c0 -4 -6 -8 -14 -8 -8 0 -17 4 -20 8 -2 4 4 8 15 8 10 0 19 -4 19 -8z m37 -5 c-4 -3 -10 -3 -14 0 -3 4 0 7 7 7 7 0 10 -3 7 -7z m-447 -43 c0 -12 -8 -12 -35 0 -18 8 -17 9 8 9 15 1 27 -3 27 -9z m-390 -622 c0 -14 -19 1 -31 25 -12 22 -12 22 10 3 11 -11 21 -23 21 -28z m90 -25 c33 -21 62 -43 64 -50 4 -11 -98 52 -128 79 -23 20 9 5 64 -29z m917 10 c-4 -3 -10 -3 -14 0 -3 4 0 7 7 7 7 0 10 -3 7 -7z m-490 -129 c-3 -3 -12 -4 -19 -1 -8 3 -5 6 6 6 11 1 17 -2 13 -5z m-302 -14 c3 -5 1 -10 -4 -10 -6 0 -11 5 -11 10 0 6 2 10 4 10 3 0 8 -4 11 -10z"/>
<path d="M425 900 c3 -5 8 -10 11 -10 2 0 4 5 4 10 0 6 -5 10 -11 10 -5 0 -7 -4 -4 -10z"/>
<path d="M430 649 c0 -12 16 -41 35 -65 39 -48 95 -91 95 -74 0 6 -16 20 -35 31 -22 14 -43 39 -61 75 -14 30 -28 54 -30 54 -2 0 -4 -10 -4 -21z"/>
<path d="M370 615 c0 -8 -5 -15 -12 -15 -7 0 -6 -5 3 -12 9 -7 49 -50 89 -96 73 -83 123 -123 203 -164 47 -24 110 -41 101 -27 -3 5 -16 9 -29 9 -13 0 -28 6 -32 13 -9 14 -89 67 -101 67 -5 0 -47 36 -94 80 -55 51 -91 94 -102 120 -16 42 -26 51 -26 25z"/>
<path d="M800 417 c0 -14 73 -37 115 -37 13 0 30 -9 38 -20 12 -18 22 -20 93 -15 75 5 78 4 57 -11 -29 -21 -29 -34 0 -34 18 -1 15 -4 -15 -21 -21 -11 -38 -21 -38 -24 0 -2 32 -3 71 -3 48 1 73 -2 79 -11 4 -8 16 -11 29 -6 27 8 27 22 -1 31 -21 6 -21 7 -3 20 17 13 16 14 -16 15 l-34 1 35 15 c34 15 34 16 13 26 -22 10 -32 27 -15 27 4 0 21 12 37 27 21 18 24 24 10 18 -45 -17 -109 -35 -112 -31 -3 2 0 14 7 25 14 27 1 27 -76 0 -66 -23 -157 -21 -233 5 -32 12 -41 12 -41 3z"/>
<path d="M918 333 c7 -3 16 -2 19 1 4 3 -2 6 -13 5 -11 0 -14 -3 -6 -6z"/>
<path d="M925 300 c-22 -11 -50 -19 -62 -20 -13 0 -23 -5 -23 -11 0 -6 -12 -10 -27 -9 -43 3 -51 -2 -18 -10 17 -4 57 -8 90 -9 50 0 65 4 88 24 31 27 36 55 10 55 -10 -1 -36 -9 -58 -20z"/>
<path d="M1018 243 c7 -3 16 -2 19 1 4 3 -2 6 -13 5 -11 0 -14 -3 -6 -6z"/>
<path d="M983 233 c4 -3 10 -3 14 0 3 4 0 7 -7 7 -7 0 -10 -3 -7 -7z"/>
<path d="M1200 200 c0 -5 7 -10 15 -10 8 0 15 5 15 10 0 6 -7 10 -15 10 -8 0 -15 -4 -15 -10z"/>
</g>
<g id="layer104" fill="#6a3e38" stroke="none">
<path d="M0 1000 l0 -1000 1000 0 1000 0 0 1000 0 1000 -1000 0 -1000 0 0 -1000z m1088 858 c8 -10 5 -13 -11 -14 -12 -1 -39 -4 -59 -7 -44 -7 -62 9 -21 19 15 3 33 7 38 9 22 7 43 4 53 -7z m-148 -28 c0 -5 -4 -10 -10 -10 -5 0 -10 5 -10 10 0 6 5 10 10 10 6 0 10 -4 10 -10z m-423 -778 c7 -20 17 -78 23 -128 5 -49 16 -107 25 -127 8 -20 15 -52 15 -72 0 -43 23 -101 53 -134 26 -28 139 -81 172 -81 13 0 36 -5 52 -11 57 -22 187 -35 288 -27 168 12 240 23 267 40 26 17 31 29 64 133 11 35 33 76 53 98 30 33 31 37 13 37 -11 0 -22 -6 -25 -12 -2 -7 -7 -10 -11 -7 -4 4 2 30 14 58 11 28 20 63 20 76 0 40 21 125 31 125 5 0 9 -7 9 -15 0 -7 8 -18 17 -23 14 -8 15 -14 5 -38 -13 -33 -2 -175 16 -197 19 -23 36 -165 23 -193 -6 -14 -11 -34 -11 -45 0 -11 -11 -36 -24 -57 -13 -21 -27 -52 -30 -69 -5 -23 -17 -36 -42 -48 -29 -14 -33 -19 -24 -36 9 -16 6 -21 -17 -31 -15 -7 -39 -20 -52 -30 -13 -10 -36 -18 -51 -18 -29 0 -66 -32 -55 -49 3 -6 0 -12 -7 -12 -7 -1 -29 -3 -48 -5 -19 -1 -66 -7 -105 -12 -38 -5 -74 -6 -79 -2 -4 5 -23 6 -41 3 -18 -3 -55 2 -81 10 -27 8 -83 18 -124 22 -41 4 -95 15 -119 26 -35 15 -46 17 -52 7 -7 -10 -13 -10 -31 1 -23 14 -23 14 -4 -7 10 -12 35 -27 55 -33 20 -7 38 -15 41 -19 3 -5 21 -15 40 -23 l35 -15 -46 -1 c-32 -1 -54 5 -72 19 -14 11 -30 20 -35 20 -5 0 -37 24 -70 53 -33 28 -72 60 -87 71 -26 18 -65 72 -65 90 0 5 10 0 22 -11 13 -11 46 -30 73 -42 l50 -21 -27 23 c-15 12 -46 36 -68 52 -64 46 -116 94 -103 95 13 0 -11 55 -34 78 -20 20 -26 58 -18 105 4 23 9 60 11 81 2 22 11 47 19 56 8 9 20 54 26 101 8 65 15 88 33 104 12 11 27 32 34 48 6 15 16 27 22 27 5 0 10 10 10 22 0 28 11 17 27 -30z m306 -39 c-21 -8 -15 -26 7 -20 11 3 20 1 20 -4 0 -5 -20 -9 -45 -9 -34 0 -43 3 -39 14 3 8 12 12 19 10 7 -3 16 -1 20 5 3 6 12 11 18 10 9 0 9 -2 0 -6z m481 -19 c-6 -23 -4 -25 15 -19 11 3 21 2 21 -3 0 -14 -23 -21 -53 -15 -20 4 -27 11 -26 27 0 20 1 20 9 1 7 -18 8 -18 15 8 4 15 11 27 16 27 5 0 6 -12 3 -26z m-559 6 c3 -5 4 -10 1 -10 -3 0 -8 5 -11 10 -3 6 -4 10 -1 10 3 0 8 -4 11 -10z m655 -15 c-7 -9 -15 -13 -19 -10 -3 3 1 10 9 15 21 14 24 12 10 -5z m-496 -54 c10 -16 -22 -33 -46 -25 -13 4 -26 9 -30 10 -21 5 -21 7 2 14 35 11 68 12 74 1z m371 -31 c18 -8 17 -9 -7 -9 -16 -1 -28 4 -28 9 0 12 8 12 35 0z m-339 -769 c5 -5 25 -12 44 -14 19 -3 4 -3 -33 -2 -72 3 -122 25 -56 25 19 0 39 -4 45 -9z m101 -48 c-4 -3 -10 -3 -14 0 -3 4 0 7 7 7 7 0 10 -3 7 -7z"/>
</g>
<g id="layer105" fill="#554e44" stroke="none">
<path d="M0 1000 l0 -1000 1000 0 1000 0 0 1000 0 1000 -1000 0 -1000 0 0 -1000z m1088 858 c8 -10 5 -13 -11 -14 -12 -1 -39 -4 -59 -7 -44 -7 -62 9 -21 19 15 3 33 7 38 9 22 7 43 4 53 -7z m-148 -28 c0 -5 -4 -10 -10 -10 -5 0 -10 5 -10 10 0 6 5 10 10 10 6 0 10 -4 10 -10z m15 -340 c37 -8 36 -8 -22 -8 -35 1 -63 5 -63 9 0 11 32 11 85 -1z m300 0 c4 -6 -6 -10 -22 -10 -22 0 -25 2 -13 10 19 12 27 12 35 0z m-738 -438 c7 -20 17 -78 23 -128 5 -49 16 -107 25 -127 8 -20 15 -52 15 -72 0 -43 23 -101 53 -134 26 -28 139 -81 172 -81 13 0 36 -5 52 -11 57 -22 187 -35 288 -27 168 12 240 23 267 40 26 17 31 29 64 133 11 35 33 76 53 98 30 33 31 37 13 37 -11 0 -22 -6 -25 -12 -2 -7 -7 -10 -11 -7 -4 4 2 30 14 58 11 28 20 63 20 76 0 40 21 125 31 125 5 0 9 -7 9 -15 0 -7 8 -18 17 -23 14 -8 15 -14 5 -38 -13 -33 -2 -175 16 -197 19 -23 36 -165 23 -193 -6 -14 -11 -34 -11 -45 0 -11 -11 -36 -24 -57 -13 -21 -27 -52 -30 -69 -5 -23 -17 -36 -42 -48 -29 -14 -33 -19 -24 -36 9 -16 6 -21 -17 -31 -15 -7 -39 -20 -52 -30 -13 -10 -36 -18 -51 -18 -29 0 -66 -32 -55 -49 3 -6 0 -12 -7 -12 -7 -1 -29 -3 -48 -5 -19 -1 -66 -7 -105 -12 -38 -5 -74 -6 -79 -2 -4 5 -23 6 -41 3 -18 -3 -55 2 -81 10 -27 8 -83 18 -124 22 -41 4 -95 15 -119 26 -35 15 -46 17 -52 7 -7 -10 -13 -10 -31 1 -23 14 -23 14 -4 -7 10 -12 35 -27 55 -33 20 -7 38 -15 41 -19 3 -5 21 -15 40 -23 l35 -15 -46 -1 c-32 -1 -54 5 -72 19 -14 11 -30 20 -35 20 -5 0 -37 24 -70 53 -33 28 -72 60 -87 71 -26 18 -65 72 -65 90 0 5 10 0 22 -11 13 -11 46 -30 73 -42 l50 -21 -27 23 c-15 12 -46 36 -68 52 -64 46 -116 94 -103 95 13 0 -11 55 -34 78 -20 20 -26 58 -18 105 4 23 9 60 11 81 2 22 11 47 19 56 8 9 20 54 26 101 8 65 15 88 33 104 12 11 27 32 34 48 6 15 16 27 22 27 5 0 10 10 10 22 0 28 11 17 27 -30z m219 -47 c10 -8 15 -14 9 -14 -5 0 -19 6 -29 14 -11 8 -15 15 -10 15 6 0 19 -7 30 -15z m87 8 c-21 -8 -15 -26 7 -20 11 3 20 1 20 -4 0 -5 -20 -9 -45 -9 -34 0 -43 3 -39 14 3 8 12 12 19 10 7 -3 16 -1 20 5 3 6 12 11 18 10 9 0 9 -2 0 -6z m481 -19 c-6 -23 -4 -25 15 -19 12 3 21 2 21 -4 0 -16 -16 -21 -49 -15 -23 5 -31 12 -30 28 0 20 1 20 9 1 7 -18 8 -18 15 8 4 15 11 27 16 27 5 0 6 -12 3 -26z m96 -14 c-8 -5 -17 -7 -19 -4 -3 3 1 9 9 14 8 5 17 7 19 4 3 -3 -1 -9 -9 -14z m-485 0 c-3 -5 -12 -10 -18 -10 -7 0 -6 4 3 10 19 12 23 12 15 0z m320 -28 c-3 -3 -11 0 -18 7 -9 10 -8 11 6 5 10 -3 15 -9 12 -12z m-331 -21 c10 -16 -22 -33 -46 -25 -13 4 -26 9 -30 10 -21 5 -21 7 2 14 35 11 68 12 74 1z m381 -31 c15 -7 10 -9 -23 -9 -26 -1 -41 3 -37 9 7 12 32 12 60 0z m-349 -769 c5 -5 25 -12 44 -14 19 -3 4 -3 -33 -2 -72 3 -122 25 -56 25 19 0 39 -4 45 -9z m101 -48 c-4 -3 -10 -3 -14 0 -3 4 0 7 7 7 7 0 10 -3 7 -7z"/>
<path d="M395 560 c3 -5 8 -10 11 -10 3 0 2 5 -1 10 -3 6 -8 10 -11 10 -3 0 -2 -4 1 -10z"/>
<path d="M1050 395 c-54 -20 -60 -24 -34 -25 41 0 91 18 98 36 3 8 4 14 3 13 -1 0 -31 -11 -67 -24z"/>
<path d="M1164 368 c-4 -7 -3 -8 4 -4 7 4 12 9 12 12 0 8 -9 4 -16 -8z"/>
<path d="M1116 331 c-3 -5 10 -9 29 -9 19 0 32 4 29 9 -3 5 -16 9 -29 9 -13 0 -26 -4 -29 -9z"/>
<path d="M595 280 c3 -5 8 -10 11 -10 3 0 2 5 -1 10 -3 6 -8 10 -11 10 -3 0 -2 -4 1 -10z"/>
<path d="M883 253 c4 -3 10 -3 14 0 3 4 0 7 -7 7 -7 0 -10 -3 -7 -7z"/>
</g>
<g id="layer106" fill="#6b4b3d" stroke="none">
<path d="M0 1000 l0 -1000 1000 0 1000 0 0 1000 0 1000 -1000 0 -1000 0 0 -1000z m1121 870 c22 0 57 -19 99 -54 l35 -28 -40 22 c-43 24 -68 26 -190 12 -94 -11 -118 -18 -165 -48 -31 -19 -100 -40 -100 -30 0 3 30 21 68 42 37 20 69 40 72 44 7 10 96 51 127 59 17 5 37 2 53 -6 14 -7 32 -13 41 -13z m174 -90 c3 -5 2 -10 -4 -10 -5 0 -13 5 -16 10 -3 6 -2 10 4 10 5 0 13 -4 16 -10z m-589 -76 c-30 -21 -44 -16 -17 7 13 11 27 17 30 13 3 -3 -3 -12 -13 -20z m249 -214 c37 -8 36 -8 -22 -8 -35 1 -63 5 -63 9 0 11 32 11 85 -1z m300 0 c4 -6 -6 -10 -22 -10 -22 0 -25 2 -13 10 19 12 27 12 35 0z m-727 -445 c6 -35 12 -81 12 -102 0 -21 5 -54 10 -73 5 -19 16 -66 25 -105 29 -123 37 -143 69 -174 82 -79 371 -137 551 -111 44 6 100 13 125 14 51 4 90 17 108 38 17 21 73 189 72 218 0 13 6 42 15 65 8 22 24 94 37 160 20 108 23 116 28 78 3 -23 11 -47 17 -55 6 -7 13 -59 16 -115 3 -57 11 -111 17 -122 5 -11 12 -69 14 -129 4 -101 2 -115 -20 -161 -14 -28 -29 -51 -34 -51 -6 0 -10 -11 -10 -25 0 -26 -39 -75 -60 -75 -6 0 -8 -10 -5 -23 8 -32 -34 -66 -91 -74 -34 -4 -49 -12 -62 -32 -9 -14 -17 -28 -18 -30 -2 -1 -38 -10 -81 -18 -110 -21 -115 -21 -148 -22 -26 -1 -28 -3 -12 -12 18 -10 18 -12 -2 -25 -15 -11 -54 -15 -139 -17 -101 -1 -122 1 -136 16 -10 9 -29 17 -44 17 -15 1 -44 7 -64 14 -47 17 -145 82 -161 107 -6 10 -17 19 -24 19 -6 0 -29 20 -50 44 -36 41 -46 57 -75 124 -7 15 -18 34 -24 42 -7 8 -22 44 -34 79 -19 54 -21 75 -15 143 4 50 14 92 26 112 10 18 24 70 31 115 10 72 14 84 35 92 13 5 23 17 23 28 0 11 8 28 18 38 11 10 22 26 25 36 12 32 22 17 35 -48z m320 -30 c14 -30 7 -35 -41 -35 -36 0 -113 27 -104 37 3 2 16 -2 31 -8 23 -11 28 -9 46 14 24 30 52 27 68 -8z m480 3 c7 -7 12 -20 12 -30 0 -22 13 -23 45 -2 14 9 25 12 25 6 0 -9 -30 -24 -77 -37 -36 -10 -73 4 -73 29 0 26 18 46 40 46 9 0 21 -5 28 -12z m-413 -38 c-3 -5 -12 -10 -18 -10 -7 0 -6 4 3 10 19 12 23 12 15 0z m320 -28 c-3 -3 -11 0 -18 7 -9 10 -8 11 6 5 10 -3 15 -9 12 -12z m-328 -28 c6 -17 -21 -24 -61 -17 -41 6 -47 19 -13 26 35 7 70 3 74 -9z m378 -24 c15 -7 10 -9 -23 -9 -26 -1 -41 3 -37 9 7 12 32 12 60 0z"/>
</g>
<g id="layer107" fill="#6e5948" stroke="none">
<path d="M0 1000 l0 -1000 1000 0 1000 0 0 1000 0 1000 -1000 0 -1000 0 0 -1000z m1121 870 c22 0 57 -19 99 -54 l35 -28 -40 22 c-43 24 -68 26 -190 12 -94 -11 -118 -18 -165 -48 -31 -19 -100 -40 -100 -30 0 3 30 21 68 42 37 20 69 40 72 44 7 10 96 51 127 59 17 5 37 2 53 -6 14 -7 32 -13 41 -13z m174 -90 c3 -5 2 -10 -4 -10 -5 0 -13 5 -16 10 -3 6 -2 10 4 10 5 0 13 -4 16 -10z m-589 -76 c-30 -21 -44 -16 -17 7 13 11 27 17 30 13 3 -3 -3 -12 -13 -20z m259 -214 c24 -6 18 -8 -32 -9 -34 0 -65 4 -68 9 -7 12 54 12 100 0z m300 0 c4 -6 -11 -10 -37 -9 -33 0 -38 2 -23 9 28 12 53 12 60 0z m-258 -197 c-4 -3 -10 -3 -14 0 -3 4 0 7 7 7 7 0 10 -3 7 -7z m140 0 c-4 -3 -10 -3 -14 0 -3 4 0 7 7 7 7 0 10 -3 7 -7z m-626 -175 c21 -206 30 -268 49 -318 11 -30 20 -70 20 -88 0 -40 42 -115 78 -140 34 -23 124 -55 222 -78 92 -22 287 -25 343 -5 20 7 61 14 90 15 75 5 104 21 120 70 8 23 22 64 32 91 10 28 17 62 16 78 -1 15 7 44 18 65 10 20 22 57 26 82 3 25 13 78 21 118 8 40 15 96 16 125 0 37 3 46 9 32 4 -11 5 -46 2 -77 -4 -42 -1 -64 9 -80 9 -14 17 -62 21 -125 3 -57 11 -111 17 -122 5 -11 12 -69 14 -129 4 -101 2 -115 -20 -161 -14 -28 -29 -51 -34 -51 -6 0 -10 -11 -10 -25 0 -26 -39 -75 -60 -75 -6 0 -8 -10 -5 -23 8 -32 -34 -66 -91 -74 -34 -4 -49 -12 -62 -32 -9 -14 -17 -28 -18 -30 -2 -1 -38 -10 -81 -18 -110 -21 -115 -21 -148 -22 -26 -1 -28 -3 -12 -12 18 -10 18 -11 0 -25 -10 -7 -42 -14 -75 -14 -31 0 -69 -5 -84 -10 -19 -8 -30 -8 -38 0 -5 5 -23 10 -39 10 -16 0 -35 7 -43 15 -9 8 -27 15 -42 15 -15 1 -44 7 -64 14 -47 17 -145 82 -161 107 -6 10 -17 19 -24 19 -14 0 -84 78 -99 111 -6 13 -17 38 -25 54 -7 17 -19 37 -25 45 -7 8 -22 44 -34 79 -19 54 -21 75 -15 143 4 50 14 92 26 113 11 18 25 70 31 117 9 70 15 86 32 94 12 5 22 19 24 30 2 12 12 30 23 40 12 11 19 30 19 53 0 42 10 84 18 76 3 -3 9 -38 13 -77z m327 -103 c14 -30 8 -35 -45 -35 -49 0 -142 41 -110 48 10 2 26 -3 36 -12 23 -21 30 -20 52 8 23 29 52 25 67 -9z m480 3 c7 -7 12 -20 12 -30 0 -22 18 -23 41 -2 10 9 24 14 31 12 27 -9 -46 -42 -110 -50 -53 -6 -71 -5 -90 8 -33 22 -21 29 17 10 39 -21 39 -20 33 9 -8 44 36 73 66 43z m-408 -38 c-24 -19 -50 -26 -50 -15 0 6 59 34 70 34 3 0 -6 -8 -20 -19z m9 -46 c2 -2 -2 -10 -9 -19 -13 -16 -103 -20 -150 -5 -23 6 -22 8 15 14 22 4 49 11 60 16 18 8 73 4 84 -6z m394 -43 c14 -14 -60 -26 -91 -15 -14 5 -27 15 -30 23 -4 11 6 13 53 8 32 -3 62 -10 68 -16z"/>
<path d="M460 365 c7 -9 15 -13 17 -11 7 7 -7 26 -19 26 -6 0 -6 -6 2 -15z"/>
<path d="M775 160 c3 -6 20 -10 37 -10 38 0 34 5 -10 13 -21 4 -31 3 -27 -3z"/>
<path d="M843 113 c4 -3 10 -3 14 0 3 4 0 7 -7 7 -7 0 -10 -3 -7 -7z"/>
<path d="M910 95 c0 -2 9 -9 19 -14 14 -8 20 -7 25 4 4 11 -2 15 -19 15 -14 0 -25 -2 -25 -5z"/>
<path d="M790 1020 c0 -7 3 -10 7 -7 3 4 3 10 0 14 -4 3 -7 0 -7 -7z"/>
<path d="M810 1000 c0 -5 7 -10 15 -10 8 0 15 5 15 10 0 6 -7 10 -15 10 -8 0 -15 -4 -15 -10z"/>
<path d="M1300 984 c0 -8 5 -12 10 -9 6 3 10 10 10 16 0 5 -4 9 -10 9 -5 0 -10 -7 -10 -16z"/>
</g>
<g id="layer108" fill="#824e40" stroke="none">
<path d="M0 1000 l0 -1000 1000 0 1000 0 0 1000 0 1000 -1000 0 -1000 0 0 -1000z m540 965 c14 -19 14 -19 -2 -6 -10 7 -18 18 -18 24 0 6 1 8 3 6 1 -2 9 -13 17 -24z m555 -74 c80 -29 103 -39 109 -50 3 -5 40 -28 81 -50 41 -23 75 -44 75 -46 0 -11 -59 9 -134 46 -78 39 -119 48 -131 29 -3 -5 -37 -10 -75 -10 -60 0 -79 -5 -132 -33 -35 -19 -79 -37 -98 -41 -19 -3 -59 -22 -88 -42 -30 -19 -56 -34 -58 -32 -9 10 52 60 108 88 35 18 79 45 98 60 19 15 52 35 73 43 20 9 37 21 37 26 0 6 13 11 29 11 17 0 33 5 36 10 8 13 11 13 70 -9z m-130 -401 c23 -6 15 -8 -37 -9 -40 -1 -68 3 -68 9 0 11 60 11 105 0z m313 -13 c3 -16 1 -17 -16 -8 -12 6 -33 11 -49 12 -25 0 -26 1 -8 9 32 14 69 7 73 -13z m-271 -184 c-4 -3 -10 -3 -14 0 -3 4 0 7 7 7 7 0 10 -3 7 -7z m140 0 c-4 -3 -10 -3 -14 0 -3 4 0 7 7 7 7 0 10 -3 7 -7z m-622 -116 c0 -140 23 -306 50 -372 13 -33 25 -73 25 -90 0 -16 13 -53 29 -81 25 -42 39 -55 89 -77 165 -74 367 -96 525 -58 43 11 85 17 92 15 7 -3 16 -1 20 5 3 6 17 11 31 11 33 0 55 39 77 136 10 44 28 102 39 129 11 28 24 70 29 95 31 170 39 221 40 265 0 39 2 45 9 28 5 -12 8 -53 8 -92 -1 -43 3 -75 11 -85 7 -8 15 -54 17 -103 3 -48 9 -104 14 -123 6 -19 10 -56 10 -82 0 -26 4 -49 10 -53 5 -3 7 -25 4 -48 -3 -23 -7 -56 -9 -73 -2 -17 -16 -51 -31 -75 -15 -24 -30 -53 -31 -64 -4 -24 -42 -65 -60 -65 -9 0 -11 -8 -7 -26 9 -37 -35 -74 -87 -74 -21 0 -43 -6 -49 -12 -5 -7 -18 -24 -28 -36 -13 -17 -29 -25 -57 -26 -54 -3 -116 -24 -138 -47 -10 -10 -30 -21 -45 -25 -15 -3 -34 -8 -42 -11 -68 -22 -290 -7 -315 21 -5 7 -26 18 -45 26 -70 28 -158 91 -211 152 -29 35 -59 67 -66 71 -7 4 -13 13 -13 20 0 7 -12 35 -26 62 -52 103 -67 163 -61 253 4 59 12 93 27 117 20 33 43 165 33 191 -3 9 2 14 14 14 27 0 43 19 43 51 0 15 6 29 14 32 7 3 16 25 20 49 12 83 19 113 28 126 6 6 11 12 12 12 0 0 1 -37 1 -83z m315 -147 c11 -11 20 -25 20 -30 0 -7 6 -7 20 0 15 8 20 8 20 -1 0 -7 9 -9 21 -6 27 7 14 -7 -26 -27 l-30 -16 27 0 c32 0 58 -9 58 -21 0 -20 -57 -36 -115 -33 -93 4 -195 16 -195 23 0 3 37 7 83 8 71 1 161 19 117 23 -8 1 3 10 25 21 22 11 29 16 15 12 -56 -15 -124 -9 -165 17 -36 22 -38 25 -17 28 12 2 29 -4 38 -12 20 -21 23 -20 46 9 24 30 32 31 58 5z m500 -20 c6 -11 8 -25 5 -30 -10 -16 22 -11 35 6 22 25 50 37 50 20 0 -23 -63 -56 -108 -56 -23 0 -42 -5 -45 -12 -3 -10 -14 -8 -42 7 -45 23 -47 41 -4 37 18 -1 29 3 29 11 0 38 62 51 80 17z m-37 -107 c34 -9 66 -19 70 -23 4 -4 -27 -10 -69 -13 -70 -6 -78 -5 -95 14 -36 42 -6 49 94 22z"/>
</g>
<g id="layer109" fill="#776852" stroke="none">
<path d="M0 1000 l0 -1000 1000 0 1000 0 0 1000 0 1000 -1000 0 -1000 0 0 -1000z m540 965 c14 -19 14 -19 -2 -6 -10 7 -18 18 -18 24 0 6 1 8 3 6 1 -2 9 -13 17 -24z m555 -74 c80 -29 103 -39 109 -50 3 -5 40 -28 81 -50 41 -23 75 -44 75 -46 0 -11 -59 9 -134 46 -78 39 -119 48 -131 29 -3 -5 -37 -10 -75 -10 -60 0 -79 -5 -132 -33 -35 -19 -79 -37 -98 -41 -19 -3 -59 -22 -88 -42 -30 -19 -56 -34 -58 -32 -9 10 52 60 108 88 35 18 79 45 98 60 19 15 52 35 73 43 20 9 37 21 37 26 0 6 13 11 29 11 17 0 33 5 36 10 8 13 11 13 70 -9z m-135 -387 c26 -14 53 -16 138 -11 65 3 107 9 112 17 10 16 70 -15 70 -36 0 -11 -5 -12 -17 -6 -10 5 -54 7 -98 5 -178 -7 -305 0 -305 18 0 10 35 27 56 28 6 1 26 -6 44 -15z m60 -203 c0 -5 -7 -11 -15 -15 -15 -5 -20 5 -8 17 9 10 23 9 23 -2z m130 -11 c0 -5 -4 -10 -9 -10 -6 0 -13 5 -16 10 -3 6 1 10 9 10 9 0 16 -4 16 -10z m-625 -113 c0 -140 23 -306 50 -372 13 -33 25 -73 25 -90 0 -16 13 -53 29 -81 25 -42 39 -55 89 -77 165 -74 367 -96 525 -58 43 11 85 17 92 15 7 -3 16 -1 20 5 3 6 17 11 31 11 33 0 55 39 77 136 10 44 28 102 39 129 11 28 24 70 29 95 31 170 39 221 40 265 0 39 2 45 9 28 5 -12 8 -53 8 -92 -1 -43 3 -75 11 -85 7 -8 15 -54 17 -103 3 -48 9 -104 14 -123 6 -19 10 -56 10 -82 0 -26 4 -49 10 -53 5 -3 7 -25 4 -48 -3 -23 -7 -56 -9 -73 -2 -17 -16 -51 -31 -75 -15 -24 -30 -53 -31 -64 -4 -24 -42 -65 -60 -65 -9 0 -11 -8 -7 -26 9 -37 -35 -74 -87 -74 -21 0 -43 -6 -49 -12 -5 -7 -18 -24 -28 -36 -13 -17 -29 -25 -57 -26 -54 -3 -116 -24 -138 -47 -10 -10 -30 -21 -45 -25 -15 -3 -34 -8 -42 -11 -68 -22 -290 -7 -315 21 -5 7 -26 18 -45 26 -70 28 -158 91 -211 152 -29 35 -59 67 -66 71 -7 4 -13 13 -13 20 0 7 -12 35 -26 62 -52 103 -67 163 -61 253 4 59 12 93 27 117 20 33 43 165 33 191 -3 9 2 14 14 14 27 0 43 19 43 51 0 15 6 29 14 32 7 3 16 27 19 54 4 26 9 58 13 71 5 18 3 21 -9 16 -9 -3 -19 -14 -22 -25 -8 -24 -25 -25 -25 -1 0 23 19 42 41 42 9 0 22 7 29 15 7 8 13 15 14 15 0 0 1 -37 1 -83z m455 -150 c0 -24 -3 -28 -10 -17 -13 20 -13 63 0 55 6 -3 10 -21 10 -38z m-140 3 c11 -11 20 -25 20 -30 0 -6 13 -4 29 5 29 14 61 12 61 -6 0 -4 -14 -16 -31 -26 l-30 -18 27 -5 c77 -14 10 -59 -81 -54 -93 4 -195 16 -195 23 0 3 30 6 68 7 83 0 151 13 133 23 -9 6 -3 12 20 20 18 6 30 14 26 17 -3 3 -14 1 -25 -5 -44 -24 -146 0 -181 42 -12 15 -11 17 6 17 11 0 30 -9 43 -20 29 -25 28 -25 52 5 24 30 32 31 58 5z m500 -20 c6 -11 8 -25 5 -30 -12 -19 17 -10 47 15 16 14 35 22 41 18 14 -8 -40 -52 -73 -59 -14 -3 -44 -10 -67 -16 -36 -9 -47 -7 -74 8 -51 30 -51 48 0 40 30 -5 41 -3 41 7 0 38 62 51 80 17z m-620 -30 c8 -5 11 -10 5 -10 -5 0 -17 5 -25 10 -8 5 -10 10 -5 10 6 0 17 -5 25 -10z m583 -77 c34 -9 66 -19 70 -23 4 -4 -27 -10 -69 -13 -70 -6 -78 -5 -95 14 -36 42 -6 49 94 22z"/>
<path d="M820 999 c0 -5 5 -7 10 -4 6 3 10 8 10 11 0 2 -4 4 -10 4 -5 0 -10 -5 -10 -11z"/>
<path d="M1300 990 c0 -5 5 -10 11 -10 5 0 7 5 4 10 -3 6 -8 10 -11 10 -2 0 -4 -4 -4 -10z"/>
</g>
<g id="layer110" fill="#906d58" stroke="none">
<path d="M0 1000 l0 -1000 1000 0 1000 0 0 1000 0 1000 -225 0 c-173 0 -225 -3 -225 -12 0 -10 -2 -10 -8 0 -7 10 -115 12 -510 10 l-502 -3 21 -40 21 -40 -26 24 c-14 14 -26 33 -26 43 0 17 -15 18 -260 18 l-260 0 0 -1000z m1077 905 c27 -11 39 -12 49 -4 11 9 20 5 42 -17 41 -41 73 -64 105 -76 15 -5 27 -14 27 -19 0 -5 6 -9 13 -9 6 0 30 -16 52 -35 32 -29 35 -35 17 -32 -12 2 -28 9 -34 15 -7 7 -18 12 -24 12 -7 0 -42 15 -79 34 l-65 35 -113 -5 c-81 -4 -124 -11 -154 -25 -24 -10 -47 -19 -52 -19 -5 0 -11 -6 -14 -13 -3 -8 -34 -22 -69 -32 -34 -9 -84 -33 -110 -52 -33 -24 -48 -30 -48 -20 0 19 72 84 114 104 81 38 108 60 101 84 -5 14 -2 19 12 17 46 -4 63 2 63 23 0 16 4 19 20 14 11 -4 20 -2 20 4 0 6 11 11 25 11 14 0 25 5 25 10 0 15 35 12 77 -5z m13 -135 c0 -5 -2 -10 -4 -10 -3 0 -8 5 -11 10 -3 6 -1 10 4 10 6 0 11 -4 11 -10z m-483 -172 c-3 -8 -6 -5 -6 6 -1 11 2 17 5 13 3 -3 4 -12 1 -19z m353 -94 c26 -14 53 -16 138 -11 63 3 107 10 112 17 5 8 14 8 36 -2 59 -26 71 -57 17 -43 -15 4 -62 7 -103 6 -220 -3 -300 2 -300 20 0 10 35 27 56 28 6 1 26 -6 44 -15z m-403 -51 c-4 -3 -7 0 -7 7 0 7 3 10 7 7 3 -4 3 -10 0 -14z m2 -30 c0 -5 -4 -17 -9 -28 -8 -18 -9 -17 -9 8 -1 15 4 27 9 27 6 0 10 -3 9 -7z m-24 -178 c-9 -163 8 -348 40 -430 13 -33 27 -76 31 -95 17 -89 67 -143 164 -178 164 -60 318 -76 434 -46 33 9 79 18 101 21 22 3 44 9 50 14 5 5 22 9 37 9 22 0 31 7 39 28 13 33 34 114 44 167 4 21 16 57 28 80 21 41 65 274 67 355 2 75 18 16 19 -68 1 -40 6 -83 13 -95 6 -12 13 -42 14 -66 2 -24 11 -101 21 -170 23 -163 21 -262 -7 -300 -11 -16 -20 -34 -20 -40 0 -6 -4 -11 -9 -11 -5 0 -12 -15 -15 -32 -4 -21 -17 -40 -36 -53 -23 -15 -29 -26 -26 -41 8 -32 -39 -70 -98 -79 -41 -6 -50 -11 -59 -36 -13 -32 -23 -38 -82 -40 -22 -1 -50 -8 -62 -16 -13 -7 -23 -10 -24 -6 0 5 -4 -2 -9 -14 -5 -13 -16 -23 -25 -23 -8 0 -15 -5 -15 -11 0 -5 -4 -8 -9 -5 -4 3 -46 -1 -92 -9 -60 -10 -105 -12 -159 -6 -87 10 -193 38 -198 51 -2 6 -9 10 -14 10 -6 0 -18 7 -27 15 -9 8 -40 32 -69 54 -59 43 -161 160 -178 206 -18 47 -56 138 -68 164 -10 22 -11 69 -2 162 2 20 13 56 24 81 13 27 25 75 28 121 6 70 9 78 33 90 16 7 27 22 29 37 2 14 9 30 16 35 7 6 16 30 19 55 3 25 9 55 13 68 5 18 3 21 -9 16 -9 -3 -19 -14 -22 -25 -8 -24 -25 -25 -25 -1 0 23 19 42 41 42 19 0 35 35 44 98 13 81 17 41 10 -83z m481 50 c-21 -16 -32 -13 -21 4 3 6 14 11 23 11 15 -1 15 -2 -2 -15z m134 -5 c0 -5 -4 -10 -9 -10 -6 0 -13 5 -16 10 -3 6 1 10 9 10 9 0 16 -4 16 -10z m-170 -263 c0 -24 -3 -28 -10 -17 -13 20 -13 63 0 55 6 -3 10 -21 10 -38z m-146 17 c9 -3 16 -12 16 -19 0 -21 16 -26 44 -15 26 10 56 4 56 -10 0 -4 -15 -17 -32 -29 l-33 -21 30 0 c17 0 36 -4 44 -9 11 -7 7 -14 -20 -30 -29 -18 -49 -21 -142 -20 -121 1 -161 9 -165 30 -2 11 13 13 80 11 46 -2 94 1 108 7 21 8 22 10 5 11 -17 0 -18 2 -5 11 11 7 0 9 -40 4 -43 -4 -60 -2 -75 10 -20 16 -20 16 0 12 11 -3 29 -8 40 -11 11 -4 4 2 -16 13 -19 11 -41 27 -48 35 -12 14 -9 16 23 16 25 0 35 -4 30 -11 -6 -10 11 -28 27 -29 3 0 11 11 17 25 12 25 27 30 56 19z m496 -24 c11 -11 20 -27 20 -36 0 -13 7 -11 34 10 51 38 80 31 36 -9 -11 -10 -18 -21 -15 -25 2 -4 -11 -7 -30 -8 -20 -1 -44 -6 -54 -12 -34 -18 -84 -11 -116 15 -25 21 -28 26 -15 35 8 5 21 8 28 5 6 -3 18 -7 25 -10 7 -3 17 7 24 25 13 35 35 38 63 10z m-26 -115 c115 -29 114 -34 -7 -42 l-85 -5 -16 31 -17 31 32 0 c17 0 59 -7 93 -15z"/>
</g>
<g id="layer111" fill="#917257" stroke="none">
<path d="M0 1000 l0 -1000 1000 0 1000 0 0 1000 0 1000 -225 0 c-173 0 -225 -3 -225 -12 0 -10 -2 -10 -8 0 -7 10 -115 12 -510 10 l-502 -3 21 -40 21 -40 -26 24 c-14 14 -26 33 -26 43 0 17 -15 18 -260 18 l-260 0 0 -1000z m1083 905 c33 -13 37 -13 45 1 10 19 32 11 32 -11 0 -13 31 -36 156 -113 27 -17 61 -43 74 -57 l23 -24 -29 8 c-16 5 -65 27 -109 49 -86 43 -139 56 -180 46 -20 -5 -23 -9 -14 -20 21 -25 -1 -33 -26 -8 -18 18 -34 24 -62 23 -39 -2 -110 -30 -153 -61 -14 -9 -46 -22 -73 -28 -26 -5 -70 -26 -97 -46 -32 -23 -50 -31 -50 -22 0 22 70 84 135 118 81 43 92 54 75 75 -12 15 -12 17 5 15 49 -5 77 0 72 14 -7 16 27 42 64 49 48 9 77 7 112 -8z m-476 -307 c-3 -8 -6 -5 -6 6 -1 11 2 17 5 13 3 -3 4 -12 1 -19z m356 -82 c12 -30 227 -29 227 2 0 10 6 12 23 7 12 -3 32 -9 45 -12 12 -3 22 -10 22 -15 0 -6 7 -8 15 -4 20 7 19 -8 -1 -28 -17 -18 -34 -21 -34 -6 0 5 -33 9 -80 7 -44 -1 -80 -6 -80 -11 0 -5 -36 -5 -82 -1 -46 4 -104 8 -130 8 -67 3 -63 30 7 55 42 15 62 14 68 -2z m-406 -63 c-4 -3 -7 0 -7 7 0 7 3 10 7 7 3 -4 3 -10 0 -14z m-1 -41 c-4 -10 -8 -39 -10 -63 -2 -24 -7 -83 -11 -131 -12 -134 11 -327 47 -405 15 -34 28 -72 28 -85 0 -33 54 -122 88 -147 64 -45 223 -89 344 -95 65 -3 105 1 181 20 54 14 102 22 106 19 5 -2 14 2 21 10 7 8 16 12 21 9 19 -11 50 8 62 39 8 18 21 70 31 117 10 47 27 99 37 116 24 40 60 227 61 319 0 39 3 74 5 79 13 20 23 -26 23 -104 0 -56 5 -92 14 -105 7 -11 13 -38 14 -60 0 -22 8 -98 18 -170 24 -166 22 -265 -6 -304 -11 -16 -20 -34 -20 -40 0 -6 -4 -11 -9 -11 -5 0 -12 -15 -15 -32 -4 -21 -17 -40 -36 -53 -23 -15 -29 -26 -26 -41 8 -32 -39 -70 -98 -79 -41 -6 -50 -11 -59 -36 -13 -32 -23 -38 -82 -40 -22 -1 -50 -8 -62 -16 -13 -7 -23 -10 -24 -6 0 5 -4 -2 -9 -14 -5 -13 -16 -23 -25 -23 -8 0 -15 -5 -15 -11 0 -5 -4 -8 -9 -5 -4 3 -46 -1 -92 -9 -60 -10 -105 -12 -159 -6 -87 10 -193 38 -198 51 -2 6 -9 10 -14 10 -6 0 -18 7 -27 15 -9 8 -40 32 -69 54 -59 43 -161 160 -178 206 -18 47 -56 138 -68 164 -10 22 -11 69 -2 162 2 20 13 57 25 81 14 29 24 74 28 127 5 69 9 81 24 81 21 0 39 28 39 60 0 11 7 23 16 27 19 7 11 53 -12 66 -27 15 -14 77 16 77 11 0 22 6 27 13 8 12 30 96 40 155 3 17 9 32 15 32 5 0 7 -8 4 -18z m624 -2 c0 -5 -2 -10 -4 -10 -3 0 -8 5 -11 10 -3 6 -1 10 4 10 6 0 11 -4 11 -10z m-167 -73 c17 -22 18 -29 7 -42 -12 -15 -40 -21 -40 -9 0 4 8 13 18 20 15 12 14 13 -13 14 -21 0 -26 3 -16 9 8 5 11 16 7 26 -9 25 14 14 37 -18z m137 3 c0 -5 -5 -10 -11 -10 -5 0 -7 5 -4 10 3 6 8 10 11 10 2 0 4 -4 4 -10z m-6 -36 c18 -7 12 -24 -10 -24 -8 0 -14 7 -14 15 0 17 2 18 24 9z m-217 -36 c-3 -8 -6 -5 -6 6 -1 11 2 17 5 13 3 -3 4 -12 1 -19z m-526 -121 c-10 -9 -11 -8 -5 6 3 10 9 15 12 12 3 -3 0 -11 -7 -18z m587 -108 c2 -24 -3 -42 -13 -53 -9 -9 -13 -20 -10 -26 11 -18 -6 -51 -31 -61 -14 -5 -79 -9 -145 -10 -94 0 -126 3 -145 15 -39 27 -28 33 49 28 39 -2 88 0 107 5 35 9 34 10 -26 17 -62 7 -74 15 -102 64 -12 21 -11 22 27 22 32 0 40 -4 45 -22 l6 -23 23 28 c29 34 64 35 79 2 6 -14 14 -25 18 -25 12 0 45 29 33 30 -28 0 -11 20 17 20 21 0 30 5 30 16 0 9 7 14 18 12 12 -2 18 -14 20 -39z m-568 -3 c0 -11 -19 -15 -25 -6 -3 5 1 10 9 10 9 0 16 -2 16 -4z m807 -3 c-4 -3 -10 -3 -14 0 -3 4 0 7 7 7 7 0 10 -3 7 -7z m114 -30 l16 -32 27 29 c14 17 35 30 46 30 24 0 25 -7 4 -48 -17 -35 -60 -52 -132 -52 -60 0 -45 -15 30 -30 35 -6 67 -14 72 -17 20 -13 -26 -23 -110 -23 -99 0 -89 -5 -122 63 -2 4 9 7 25 7 l28 0 -33 26 c-18 14 -30 30 -27 35 8 13 59 11 72 -2 8 -8 16 -3 28 20 21 42 54 39 76 -6z"/>
<path d="M940 1030 c-9 -6 -10 -10 -3 -10 6 0 15 5 18 10 8 12 4 12 -15 0z"/>
</g>
<g id="layer112" fill="#a7765c" stroke="none">
<path d="M0 1000 l0 -1000 1000 0 1000 0 0 1000 0 1000 -224 0 c-170 0 -226 -3 -229 -12 -4 -10 -6 -10 -6 0 -1 9 -108 12 -501 12 -531 0 -521 1 -485 -46 23 -31 17 -40 -10 -14 -14 13 -25 32 -25 42 0 17 -15 18 -260 18 l-260 0 0 -1000z m1247 963 c-4 -3 -7 0 -7 7 0 7 3 10 7 7 3 -4 3 -10 0 -14z m-159 -45 c22 -22 24 -22 37 -5 12 16 15 15 41 -18 23 -28 38 -37 66 -39 44 -4 86 -29 97 -59 9 -23 37 -50 84 -80 15 -9 27 -24 27 -32 0 -12 -6 -11 -32 5 -18 10 -46 21 -63 24 -16 3 -41 14 -55 24 -38 28 -91 54 -98 48 -3 -3 -15 0 -27 8 -26 17 -65 10 -65 -11 0 -8 -5 -23 -10 -34 -9 -15 -15 -17 -30 -9 -10 5 -22 19 -25 30 -5 16 -15 20 -50 20 -24 0 -46 -4 -50 -9 -3 -5 -19 -12 -36 -16 -16 -4 -40 -18 -53 -32 -17 -18 -40 -28 -77 -34 -60 -10 -122 -49 -157 -100 l-24 -34 8 30 c6 27 18 52 49 105 6 9 15 15 22 13 6 -2 19 7 29 22 9 14 22 24 28 22 6 -2 19 0 29 5 14 7 16 13 7 23 -9 11 -7 12 9 8 15 -4 21 -1 21 10 0 9 8 20 18 26 9 5 16 13 15 18 -2 4 4 8 13 8 8 0 20 9 26 19 9 15 7 22 -7 33 -21 15 -16 26 9 17 9 -3 16 -15 16 -25 0 -24 8 -24 40 1 17 13 41 20 72 20 26 0 50 5 53 10 9 15 16 13 43 -12z m149 -35 c-4 -3 -7 0 -7 7 0 7 3 10 7 7 3 -4 3 -10 0 -14z m-167 -275 c0 -6 -7 -5 -15 2 -8 7 -15 17 -15 22 0 6 7 5 15 -2 8 -7 15 -17 15 -22z m-107 -92 c11 -29 227 -29 227 0 0 18 8 17 60 -1 23 -8 46 -12 52 -9 5 4 8 -6 6 -22 -2 -23 -9 -30 -30 -32 -16 -2 -28 1 -28 6 0 6 -32 9 -75 9 -41 -1 -75 -6 -75 -11 0 -9 -126 -2 -189 10 -29 6 -33 4 -28 -9 7 -19 -18 -13 -45 11 -27 23 -23 28 35 45 66 20 84 20 90 3z m-416 -198 c-10 -95 -16 -198 -13 -228 16 -173 27 -228 56 -283 16 -31 30 -65 30 -76 0 -31 62 -127 99 -152 72 -50 224 -90 339 -91 80 0 239 30 284 53 10 5 28 9 42 9 32 0 40 13 60 100 10 41 27 98 38 125 11 28 26 66 33 85 22 59 45 219 45 309 1 80 2 84 15 61 9 -16 14 -55 15 -110 0 -50 6 -95 13 -110 8 -14 17 -67 20 -118 4 -50 12 -113 18 -139 6 -26 12 -91 12 -144 2 -84 -1 -101 -23 -142 -14 -26 -28 -47 -31 -47 -4 0 -10 -15 -13 -32 -4 -21 -17 -40 -36 -53 -24 -16 -29 -25 -25 -45 7 -34 -35 -66 -100 -75 -40 -7 -49 -12 -59 -36 -12 -33 -62 -55 -102 -45 -19 5 -33 -2 -69 -35 -42 -39 -50 -42 -117 -47 -102 -8 -248 -4 -278 7 -14 5 -46 14 -71 21 -26 7 -61 25 -79 42 -18 16 -50 40 -70 53 -32 20 -170 173 -170 189 0 3 -11 29 -25 58 -52 111 -65 170 -55 255 5 43 17 96 29 118 13 25 23 70 27 122 6 73 9 82 28 85 14 2 24 14 31 39 5 20 15 43 22 51 15 17 7 54 -13 62 -24 9 -15 76 11 76 23 0 43 35 50 87 4 29 11 55 16 59 5 3 9 18 9 34 0 26 15 80 23 80 1 0 -5 -78 -16 -172z m419 107 c20 -8 33 -19 29 -25 -3 -5 6 -30 19 -55 l26 -45 -25 -12 c-31 -14 -43 -4 -24 18 13 16 11 17 -16 10 -28 -7 -29 -7 -12 11 14 16 15 22 3 39 -55 81 -55 82 0 59z m244 6 c0 -6 -5 -13 -11 -17 -6 -3 -20 -26 -31 -50 -10 -24 -23 -44 -27 -44 -11 0 -7 88 5 99 8 8 31 16 57 20 4 0 7 -3 7 -8z m-66 -127 c9 -3 16 -10 16 -16 0 -14 -43 -5 -48 10 -4 13 7 15 32 6z m-212 -31 c-3 -16 -7 -22 -10 -15 -4 13 4 42 11 42 2 0 2 -12 -1 -27z m625 5 c-3 -8 -6 -5 -6 6 -1 11 2 17 5 13 3 -3 4 -12 1 -19z m-1156 -131 c-10 -9 -11 -8 -5 6 3 10 9 15 12 12 3 -3 0 -11 -7 -18z m577 -69 c15 -18 17 -48 8 -83 -5 -16 -9 -39 -10 -50 -1 -10 -16 -29 -34 -41 -30 -21 -43 -23 -163 -21 -125 2 -132 3 -150 26 -24 29 -12 48 19 32 23 -12 114 -13 152 -1 25 8 24 8 -5 9 -60 2 -104 21 -120 51 -23 44 -19 50 31 50 40 0 45 -2 39 -19 -9 -28 12 -35 27 -9 7 13 11 27 10 32 -2 4 10 5 25 2 26 -7 48 -26 56 -49 2 -6 11 -5 26 2 22 12 22 13 4 26 -17 13 -15 14 14 15 23 0 33 6 38 20 7 23 18 25 33 8z m-558 -42 c0 -11 -19 -15 -25 -6 -3 5 1 10 9 10 9 0 16 -2 16 -4z m813 -3 c-7 -2 -19 -2 -25 0 -7 3 -2 5 12 5 14 0 19 -2 13 -5z m99 -10 c10 -9 18 -25 18 -36 0 -19 1 -19 20 -2 10 9 18 22 17 29 -1 6 13 12 31 14 26 3 32 0 32 -17 0 -11 -10 -32 -23 -47 -20 -23 -34 -28 -93 -34 -38 -3 -62 -9 -54 -13 33 -14 160 -35 180 -30 20 5 21 4 12 -14 -10 -18 -23 -20 -136 -22 -122 -2 -125 -1 -141 23 -11 16 -22 22 -35 19 -17 -4 -20 0 -20 26 0 21 5 31 15 31 18 0 19 12 3 28 -8 8 -5 14 17 22 22 8 33 7 52 -5 24 -16 25 -15 36 14 13 35 40 41 69 14z"/>
</g>
<g id="layer113" fill="#9a8769" stroke="none">
<path d="M0 1000 l0 -1000 1000 0 1000 0 0 1000 0 1000 -224 0 c-170 0 -226 -3 -229 -12 -4 -10 -6 -10 -6 0 -1 9 -108 12 -501 12 -531 0 -521 1 -485 -46 23 -31 17 -40 -10 -14 -14 13 -25 32 -25 42 0 17 -15 18 -260 18 l-260 0 0 -1000z m1247 963 c-4 -3 -7 0 -7 7 0 7 3 10 7 7 3 -4 3 -10 0 -14z m-159 -45 c22 -22 24 -22 37 -5 12 16 15 15 41 -18 23 -28 38 -37 66 -39 44 -4 86 -29 97 -59 9 -23 37 -50 84 -80 15 -9 27 -24 27 -32 0 -12 -6 -11 -32 5 -18 10 -46 21 -63 24 -16 3 -41 14 -55 24 -38 28 -91 54 -98 48 -3 -3 -15 0 -27 8 -32 21 -60 10 -71 -27 -12 -42 -30 -45 -51 -8 -16 27 -24 31 -60 31 -23 0 -44 -4 -48 -9 -3 -5 -19 -12 -36 -16 -16 -4 -40 -18 -53 -32 -17 -18 -40 -28 -77 -34 -60 -10 -122 -49 -157 -100 l-24 -34 8 30 c6 27 18 52 49 105 6 9 15 15 22 13 6 -2 19 7 29 22 9 14 22 24 28 22 6 -2 19 0 29 5 14 7 16 13 7 23 -9 11 -7 12 9 8 15 -4 21 -1 21 10 0 9 8 20 18 26 9 5 16 13 15 18 -2 4 4 8 13 8 8 0 20 9 26 19 9 15 7 22 -7 33 -21 15 -16 26 9 17 9 -3 16 -15 16 -25 0 -24 8 -24 40 1 17 13 41 20 72 20 26 0 50 5 53 10 9 15 16 13 43 -12z m149 -35 c-4 -3 -7 0 -7 7 0 7 3 10 7 7 3 -4 3 -10 0 -14z m-164 -286 c-6 -11 -32 23 -32 43 -1 10 6 7 18 -10 11 -13 17 -28 14 -33z m43 -45 c-3 -5 -27 -10 -53 -11 -99 -3 -71 -37 30 -35 65 1 75 7 57 29 -10 12 -10 15 4 15 17 0 89 -25 121 -42 14 -8 20 -8 23 1 8 24 20 0 13 -27 -5 -20 -15 -28 -36 -30 -15 -2 -31 2 -35 8 -5 9 -17 9 -48 1 -58 -16 -210 -17 -260 -1 -23 7 -45 11 -48 7 -11 -11 7 -27 32 -27 36 0 97 -28 89 -41 -4 -6 1 -26 11 -45 16 -29 23 -34 42 -29 13 3 30 1 38 -6 20 -16 24 -10 31 50 5 44 10 54 31 62 14 6 35 9 46 7 l21 -3 -21 -20 c-30 -30 -45 -70 -31 -84 8 -8 3 -11 -19 -11 -29 -1 -29 -1 -6 -13 12 -7 19 -16 16 -20 -12 -12 -41 -8 -54 8 -16 20 -45 19 -81 -2 -24 -14 -33 -15 -49 -5 -26 16 -27 15 -40 -8 -8 -15 -7 -27 5 -49 8 -17 15 -34 15 -38 -1 -10 -50 69 -50 79 0 4 14 23 31 43 l31 35 -22 35 c-12 19 -38 42 -58 52 -20 9 -45 23 -54 31 -21 18 -24 46 -4 39 7 -3 17 -2 22 3 5 5 42 15 82 23 41 9 76 18 80 21 9 9 104 7 98 -2z m-569 -234 c-10 -95 -16 -198 -13 -228 16 -173 27 -228 56 -283 16 -31 30 -65 30 -76 0 -31 62 -127 99 -152 18 -13 56 -31 85 -41 164 -59 287 -65 437 -23 51 15 99 31 105 36 6 5 19 7 28 3 9 -3 23 -1 31 6 16 13 55 133 55 167 0 11 13 47 30 79 39 79 61 184 67 328 l6 119 18 -34 c15 -28 17 -47 12 -106 -4 -55 -2 -78 9 -95 9 -14 17 -61 21 -119 3 -53 11 -118 18 -145 6 -27 12 -92 12 -145 2 -84 -1 -101 -23 -142 -14 -26 -28 -47 -31 -47 -4 0 -10 -15 -13 -32 -4 -21 -17 -40 -36 -53 -24 -16 -29 -25 -25 -45 7 -34 -35 -66 -100 -75 -40 -7 -49 -12 -59 -36 -12 -33 -62 -55 -102 -45 -19 5 -33 -2 -69 -35 -42 -39 -50 -42 -117 -47 -102 -8 -248 -4 -278 7 -14 5 -46 14 -71 21 -26 7 -61 25 -79 42 -18 16 -50 40 -70 53 -32 20 -170 173 -170 189 0 3 -11 29 -25 58 -52 111 -65 170 -55 255 5 43 17 96 29 118 13 25 23 70 27 122 6 74 9 82 29 87 18 5 25 16 30 46 4 22 11 40 16 40 17 0 9 39 -11 50 -37 20 -21 78 30 103 20 10 26 23 33 67 4 30 12 59 17 64 6 6 10 22 10 37 0 26 15 79 23 79 1 0 -5 -78 -16 -172z m1010 -40 c-3 -8 -6 -5 -6 6 -1 11 2 17 5 13 3 -3 4 -12 1 -19z m-1097 -2 c0 -2 -8 -10 -17 -17 -16 -13 -17 -12 -4 4 13 16 21 21 21 13z m-58 -155 c-5 -3 -12 -13 -15 -21 -12 -32 -7 24 6 59 l12 35 3 -34 c2 -18 -1 -36 -6 -39z m24 -87 c-8 -21 -36 -17 -36 6 0 11 5 20 10 20 6 0 10 12 11 28 1 26 1 26 11 -7 5 -18 7 -40 4 -47z m558 54 c19 -27 20 -59 5 -107 -32 -99 -44 -104 -214 -100 -120 4 -128 5 -146 28 -25 31 -12 44 30 30 21 -7 55 -9 99 -3 l67 8 -51 6 c-64 9 -90 23 -109 60 -8 16 -15 31 -15 35 0 3 23 5 51 5 45 0 50 -2 44 -19 -9 -30 11 -34 29 -6 15 23 15 25 1 25 -9 0 -13 5 -10 10 3 6 23 10 43 9 20 0 32 -3 25 -5 -8 -4 -6 -11 6 -23 10 -10 20 -24 23 -31 3 -10 9 -10 28 0 22 12 22 13 4 23 -10 6 -25 17 -32 24 -21 20 14 29 37 9 25 -23 41 -20 41 7 0 42 21 49 44 15z m665 -15 c0 -25 -1 -26 -9 -8 -12 27 -12 35 0 35 6 0 10 -12 9 -27z m-399 -17 c0 -21 -26 -38 -52 -34 -23 4 -22 5 5 16 15 6 27 16 27 22 0 5 5 10 10 10 6 0 10 -6 10 -14z m-72 -46 c15 0 38 -7 50 -16 22 -15 23 -15 35 15 7 20 18 31 31 31 26 0 56 -28 56 -54 0 -19 1 -19 17 -3 10 10 18 25 18 35 0 12 10 18 33 20 41 4 50 -17 25 -60 -21 -36 -45 -46 -115 -47 -27 -1 -48 -5 -48 -9 0 -12 155 -41 181 -35 19 5 20 4 10 -15 -14 -27 -28 -35 -43 -26 -6 4 -58 6 -114 5 -99 -2 -103 -2 -119 22 -11 17 -22 23 -36 20 -29 -8 -53 26 -34 47 10 11 12 28 8 53 -3 20 -2 44 3 54 7 15 8 14 12 -9 3 -23 8 -28 30 -28z m162 40 c20 -6 21 -8 5 -8 -11 0 -29 3 -40 8 -25 11 1 11 35 0z m307 -47 c-4 -3 -10 -3 -14 0 -3 4 0 7 7 7 7 0 10 -3 7 -7z"/>
<path d="M820 1000 c0 -7 3 -10 7 -7 3 4 3 10 0 14 -4 3 -7 0 -7 -7z"/>
</g>
<g id="layer114" fill="#a8835f" stroke="none">
<path d="M0 1000 l0 -1000 1000 0 1000 0 0 1000 0 1000 -220 0 -221 0 -30 -35 c-17 -19 -36 -35 -42 -35 -6 0 1 13 16 28 15 15 27 31 27 35 0 4 -66 7 -147 6 -110 0 -142 -3 -127 -11 18 -8 44 -46 44 -64 0 -9 -27 21 -32 36 -4 11 -9 8 -18 -12 -7 -15 -9 -34 -5 -45 8 -17 8 -17 12 0 5 19 23 23 23 5 1 -17 46 -68 60 -68 5 0 10 -11 10 -25 0 -14 9 -34 20 -45 11 -11 20 -25 20 -30 0 -5 6 -10 13 -10 19 0 43 -30 51 -62 l6 -27 -48 25 c-26 13 -60 27 -76 30 -15 2 -37 14 -49 25 -40 37 -84 58 -96 46 -8 -8 -11 -8 -11 0 0 6 -11 14 -25 17 -20 5 -31 0 -54 -26 l-28 -32 -32 27 c-32 27 -91 38 -91 17 0 -5 -10 -10 -22 -10 -31 -1 -60 -19 -92 -57 -22 -26 -31 -30 -44 -22 -24 14 -96 -12 -101 -37 -2 -10 -13 -32 -24 -48 -19 -27 -21 -28 -34 -11 -15 21 -13 23 -36 -29 -16 -35 -28 -100 -43 -241 -2 -22 -8 -74 -12 -115 -14 -118 10 -309 48 -387 16 -35 30 -71 30 -81 0 -10 5 -23 11 -29 5 -5 18 -25 27 -44 24 -48 108 -102 210 -135 115 -38 263 -39 390 -5 45 13 85 27 88 32 3 5 16 6 29 3 31 -8 49 20 70 111 9 39 26 93 37 120 11 28 32 95 46 150 29 116 35 257 15 394 -15 98 -10 120 7 34 6 -32 18 -83 27 -113 10 -33 16 -84 14 -128 -1 -46 4 -84 13 -105 8 -17 17 -70 21 -117 3 -47 10 -103 15 -125 5 -22 10 -59 10 -82 0 -23 4 -44 9 -48 8 -4 8 -80 1 -80 -1 0 -4 -17 -5 -37 -2 -20 -14 -54 -27 -75 -14 -21 -30 -52 -37 -70 -7 -17 -24 -41 -37 -54 -14 -13 -22 -30 -19 -39 8 -26 -45 -69 -99 -79 -46 -8 -65 -22 -66 -46 0 -21 -66 -47 -102 -40 -31 6 -39 3 -69 -29 -47 -50 -138 -81 -193 -67 -23 5 -75 12 -116 16 -98 7 -210 40 -235 69 -11 12 -36 32 -56 44 -19 12 -61 50 -92 84 -32 35 -66 72 -77 84 -11 12 -20 24 -20 28 0 4 -14 37 -30 73 -17 35 -30 70 -30 77 0 8 -7 30 -15 50 -22 51 -11 174 21 241 14 31 26 79 30 127 6 69 9 77 29 82 18 5 25 16 30 46 4 22 11 40 16 40 17 0 9 39 -11 50 -37 20 -21 78 30 103 20 10 26 23 32 65 5 30 13 62 18 72 6 10 10 29 10 42 0 14 14 64 30 113 17 49 30 103 30 119 0 21 7 36 20 44 12 7 18 17 15 22 -3 6 4 10 15 10 16 0 20 5 16 15 -3 8 -1 15 4 15 6 0 10 7 10 15 0 8 -4 15 -10 15 -5 0 -7 7 -4 15 4 8 15 15 25 15 10 0 19 7 19 15 0 8 4 15 10 15 5 0 7 -7 4 -15 -8 -20 6 -19 34 3 24 19 48 92 30 92 -6 0 -8 16 -6 35 l4 35 -118 0 -119 0 16 -31 c9 -17 15 -38 13 -47 -3 -13 -9 -10 -31 13 -15 16 -27 38 -27 47 0 17 -18 18 -260 18 l-260 0 0 -1000z m1073 597 c-6 -11 -32 23 -32 43 -1 10 6 7 18 -10 11 -13 17 -28 14 -33z m405 -2 c-3 -3 -9 2 -12 12 -6 14 -5 15 5 6 7 -7 10 -15 7 -18z m-362 -43 c-3 -5 -27 -10 -53 -11 -99 -3 -71 -37 30 -35 65 1 75 7 57 29 -10 12 -10 15 4 15 17 0 89 -25 121 -42 14 -8 20 -8 23 1 8 24 20 0 13 -27 -5 -20 -15 -28 -36 -30 -15 -2 -31 2 -35 8 -5 9 -18 9 -48 0 -56 -15 -220 -15 -256 -1 -23 9 -31 9 -37 -1 -6 -9 2 -15 31 -20 50 -9 82 -26 74 -39 -3 -6 2 -26 12 -45 16 -29 23 -34 42 -29 13 3 30 1 38 -6 20 -16 24 -10 31 50 5 44 10 54 31 62 14 6 35 9 46 7 l21 -3 -21 -20 c-30 -30 -45 -70 -31 -84 8 -8 3 -11 -19 -11 -29 -1 -29 -1 -6 -13 12 -7 19 -16 16 -20 -12 -12 -41 -8 -54 8 -16 20 -45 19 -81 -2 -24 -14 -33 -15 -49 -5 -26 16 -27 15 -40 -8 -8 -15 -7 -27 5 -49 8 -17 15 -34 15 -38 -1 -10 -50 69 -50 79 0 4 14 23 31 43 l31 35 -22 35 c-12 19 -38 42 -58 52 -20 9 -45 23 -54 31 -21 18 -24 46 -4 39 7 -3 17 -2 22 3 5 5 42 15 82 23 41 9 76 18 80 21 9 9 104 7 98 -2z m423 -117 c0 -5 -4 -3 -9 5 -5 8 -9 22 -9 30 0 16 17 -16 18 -35z m-1079 -159 c0 -2 -8 -10 -17 -17 -16 -13 -17 -12 -4 4 13 16 21 21 21 13z m-58 -155 c-5 -3 -12 -13 -15 -21 -12 -32 -7 24 6 59 l12 35 3 -34 c2 -18 -1 -36 -6 -39z m24 -87 c-8 -21 -36 -17 -36 6 0 11 5 20 10 20 6 0 10 12 11 28 1 26 1 26 11 -7 5 -18 7 -40 4 -47z m558 54 c19 -27 20 -59 5 -107 -30 -93 -42 -100 -177 -102 -121 -1 -168 7 -187 34 -21 30 -4 43 34 27 22 -9 51 -10 98 -4 l68 8 -51 6 c-64 9 -90 23 -109 60 -8 16 -15 31 -15 35 0 3 24 5 54 5 30 0 58 5 61 10 3 6 23 10 43 10 28 0 33 -3 22 -10 -12 -7 -8 -10 15 -10 22 0 26 3 15 10 -12 8 -12 10 3 16 11 4 25 0 36 -10 25 -23 41 -20 41 7 0 42 21 49 44 15z m665 -15 c0 -25 -1 -26 -9 -8 -12 27 -12 35 0 35 6 0 10 -12 9 -27z m-399 -18 c0 -11 11 -15 38 -14 30 0 33 2 17 9 -25 11 1 11 35 0 18 -6 20 -8 7 -9 -11 -1 -16 -6 -13 -13 3 -7 9 -21 12 -31 9 -24 27 -16 34 14 4 18 13 25 38 27 41 4 50 -17 25 -60 -20 -35 -45 -45 -112 -47 -32 -1 -42 -4 -34 -12 15 -15 137 -39 163 -32 20 5 21 4 11 -15 -14 -27 -28 -35 -43 -26 -6 4 -60 6 -120 5 -105 -2 -108 -2 -119 22 -8 17 -17 23 -32 20 -29 -5 -53 30 -32 47 10 8 12 25 8 59 -3 31 -1 51 6 55 7 5 11 -2 11 -18 0 -23 4 -26 33 -26 18 0 39 -6 46 -12 10 -11 15 -9 27 6 11 15 11 22 2 27 -7 4 -18 3 -25 -2 -6 -6 -22 -9 -35 -7 -23 4 -22 5 5 16 15 6 27 16 27 22 0 5 5 10 10 10 6 0 10 -7 10 -15z m397 -52 c-4 -3 -10 -3 -14 0 -3 4 0 7 7 7 7 0 10 -3 7 -7z"/>
</g>
<g id="layer115" fill="#ad7a66" stroke="none">
<path d="M0 1000 l0 -1000 1000 0 1000 0 0 1000 0 1000 -220 0 -221 0 -30 -35 c-17 -19 -36 -35 -42 -35 -6 0 1 13 16 28 15 15 27 31 27 34 0 4 -66 7 -147 7 -110 0 -143 -3 -127 -11 18 -8 44 -46 44 -64 0 -9 -27 21 -32 36 -4 11 -9 8 -18 -12 -7 -15 -9 -34 -5 -45 8 -17 8 -17 12 0 5 19 23 23 23 5 1 -17 46 -68 60 -68 5 0 10 -11 10 -25 0 -14 9 -34 20 -45 11 -11 20 -25 20 -30 0 -5 6 -10 13 -10 19 0 43 -30 51 -62 l6 -27 -48 25 c-26 13 -60 27 -76 30 -15 2 -37 14 -49 25 -37 34 -86 59 -93 47 -4 -7 -9 -7 -13 0 -11 18 -61 26 -63 11 0 -8 -2 -19 -2 -24 -1 -6 -11 -20 -24 -33 -25 -25 -28 -54 -7 -72 11 -9 12 -17 5 -30 -17 -32 -12 -60 11 -60 42 0 8 -17 -38 -19 -99 -3 -71 -37 30 -35 65 1 75 7 57 29 -16 19 -10 19 73 -2 57 -15 69 -15 76 -4 15 24 28 3 22 -35 -5 -33 -11 -39 -48 -51 -43 -15 -93 -62 -93 -89 0 -8 7 -26 16 -39 9 -13 14 -30 11 -37 -4 -8 -6 -6 -6 5 -1 21 -4 21 -40 2 -25 -12 -31 -12 -47 0 -25 19 -64 19 -92 -1 -21 -15 -25 -15 -42 1 -23 21 -40 12 -40 -21 0 -18 9 -29 35 -41 30 -14 35 -22 37 -52 4 -78 -5 -163 -21 -204 -21 -55 -70 -115 -80 -98 -11 18 -252 11 -267 -8 -8 -11 -14 -3 -27 37 -19 58 -21 82 -7 82 6 0 10 -6 10 -14 0 -16 45 -26 109 -25 25 1 37 3 26 6 -58 12 -95 37 -106 70 -6 19 -9 36 -7 37 1 2 47 7 102 11 71 5 97 4 92 -4 -5 -7 2 -11 16 -11 18 0 20 2 8 10 -12 8 -12 10 3 16 10 4 23 2 30 -5 19 -19 30 -12 23 14 -5 18 -2 25 8 25 25 0 29 65 6 109 -26 51 -25 57 5 93 14 17 25 34 23 38 -2 4 -38 38 -80 75 -83 72 -95 94 -50 94 42 -1 179 26 194 38 7 6 21 9 31 8 15 -3 15 -1 -3 22 -22 28 -26 58 -10 68 17 11 11 65 -12 95 -15 21 -30 30 -50 30 -15 0 -28 -4 -28 -10 0 -5 -10 -10 -22 -10 -13 -1 -33 -6 -45 -13 -29 -16 -66 -65 -58 -77 10 -15 -6 -12 -26 6 -16 14 -22 15 -61 2 -28 -10 -44 -22 -47 -34 -2 -10 -13 -32 -24 -48 -19 -27 -21 -28 -34 -11 -7 10 -14 17 -16 14 -23 -34 -41 -106 -54 -213 -8 -72 -18 -160 -22 -196 -5 -39 -3 -111 5 -180 15 -134 23 -157 85 -240 15 -19 34 -58 43 -87 25 -77 80 -122 191 -158 77 -25 105 -29 195 -29 91 1 117 6 195 33 50 18 103 35 118 39 23 6 32 17 46 57 24 68 36 204 19 207 -7 1 -29 2 -48 4 -115 7 -193 19 -204 30 -7 7 -23 14 -36 16 -33 5 -47 31 -31 60 9 18 9 31 1 52 -14 37 6 108 29 104 11 -2 16 -14 16 -35 0 -29 2 -32 25 -26 14 3 30 12 36 19 15 18 24 18 24 -1 0 -11 11 -15 38 -14 30 0 33 2 17 9 -25 11 1 11 35 0 18 -6 20 -8 7 -9 -11 -1 -16 -6 -13 -13 3 -7 9 -21 12 -31 8 -23 28 -16 32 11 4 27 34 44 70 40 22 -2 26 -7 24 -28 -4 -32 -33 -90 -47 -91 -5 -1 -33 -1 -61 1 -29 1 -55 -3 -58 -8 -8 -14 44 -25 124 -26 47 -2 64 -5 62 -15 -1 -7 3 -11 9 -9 7 2 21 38 32 79 23 90 27 258 10 378 -15 98 -10 120 7 34 6 -32 18 -83 27 -113 10 -33 16 -84 14 -128 -1 -46 4 -84 13 -105 8 -17 17 -70 21 -117 3 -47 10 -103 15 -125 5 -22 10 -59 10 -82 0 -23 4 -44 9 -48 8 -4 8 -80 1 -80 -1 0 -4 -17 -5 -37 -2 -20 -14 -54 -27 -75 -14 -21 -30 -52 -37 -70 -7 -17 -24 -41 -37 -54 -14 -13 -22 -30 -19 -39 8 -26 -45 -69 -99 -79 -46 -8 -65 -22 -66 -46 0 -21 -66 -47 -102 -40 -31 6 -39 3 -69 -29 -47 -50 -138 -81 -193 -67 -23 5 -75 12 -116 16 -98 7 -210 40 -235 69 -11 12 -36 32 -56 44 -19 12 -61 50 -92 84 -32 35 -66 72 -77 84 -11 12 -20 24 -20 28 0 4 -14 37 -30 73 -17 35 -30 70 -30 77 0 8 -7 30 -15 50 -22 51 -11 174 21 241 15 33 26 78 30 132 4 45 10 80 15 78 17 -11 37 9 44 42 3 19 12 44 18 55 10 17 9 22 -10 35 -13 9 -23 25 -23 37 0 27 27 66 44 66 26 0 43 86 21 103 -7 6 -6 10 3 14 25 10 42 35 42 62 0 15 14 67 30 116 17 49 30 103 30 120 0 20 10 42 29 62 16 18 26 34 23 37 -3 3 3 6 13 6 17 0 17 1 2 18 -25 28 -21 42 13 42 20 0 30 5 30 15 0 8 4 15 10 15 5 0 7 -7 4 -15 -9 -23 10 -18 40 10 30 28 33 55 10 90 -15 23 -15 26 2 42 17 17 14 18 -75 21 -106 3 -118 -3 -123 -56 l-3 -37 -27 30 c-16 16 -28 38 -28 47 0 17 -18 18 -260 18 l-260 0 0 -1000z m687 913 c-4 -3 -7 0 -7 7 0 7 3 10 7 7 3 -4 3 -10 0 -14z m70 -30 c-4 -3 -7 0 -7 7 0 7 3 10 7 7 3 -4 3 -10 0 -14z m721 -288 c-3 -3 -9 2 -12 12 -6 14 -5 15 5 6 7 -7 10 -15 7 -18z m61 -160 c0 -5 -4 -3 -9 5 -5 8 -9 22 -9 30 0 16 17 -16 18 -35z m-1079 -159 c0 -2 -8 -10 -17 -17 -16 -13 -17 -12 -4 4 13 16 21 21 21 13z m744 -43 c-3 -16 -9 -37 -14 -48 -5 -11 -10 -29 -12 -39 -2 -11 -9 -21 -17 -24 -9 -3 -11 2 -6 18 4 14 1 28 -10 41 -15 15 -15 21 -5 34 7 8 21 15 32 15 10 0 21 7 24 15 10 25 15 17 8 -12z m-802 -112 c-5 -3 -12 -13 -15 -21 -12 -32 -7 24 6 59 l12 35 3 -34 c2 -18 -1 -36 -6 -39z m24 -87 c-8 -21 -36 -17 -36 6 0 11 5 20 10 20 6 0 10 12 11 28 1 26 1 26 11 -7 5 -18 7 -40 4 -47z m1223 39 c0 -25 -1 -26 -9 -8 -12 27 -12 35 0 35 6 0 10 -12 9 -27z m-2 -70 c-4 -3 -10 -3 -14 0 -3 4 0 7 7 7 7 0 10 -3 7 -7z"/>
<path d="M1038 1443 c-10 -2 -18 -9 -18 -15 0 -6 8 -17 18 -24 14 -11 14 -15 3 -23 -21 -13 -5 -50 19 -44 11 3 26 0 33 -6 17 -14 27 -4 27 26 0 14 -6 23 -15 23 -8 0 -15 5 -15 10 0 6 4 10 10 10 5 0 20 11 34 25 l25 25 -52 -1 c-29 -1 -60 -3 -69 -6z"/>
<path d="M1223 1025 c-21 -11 -21 -11 -2 -23 25 -16 27 -15 38 7 13 24 -5 32 -36 16z"/>
</g>
<g id="layer116" fill="#70979a" stroke="none">
<path d="M0 1000 l0 -1000 1000 0 1000 0 0 1000 0 1000 -220 0 -221 0 -30 -35 c-17 -19 -36 -35 -42 -35 -6 0 1 13 16 28 15 15 27 31 27 34 0 4 -66 7 -147 7 -110 0 -143 -3 -127 -11 18 -8 44 -46 44 -64 0 -9 -27 21 -32 36 -4 11 -9 8 -18 -12 -7 -15 -9 -34 -5 -45 8 -17 8 -17 12 0 5 19 23 23 23 5 1 -17 46 -68 60 -68 5 0 10 -11 10 -25 0 -14 9 -34 20 -45 11 -11 20 -25 20 -30 0 -5 6 -10 13 -10 19 0 43 -30 51 -62 l6 -27 -48 25 c-26 13 -60 27 -76 30 -15 2 -37 14 -49 25 -37 34 -86 59 -93 47 -4 -7 -9 -7 -13 0 -11 18 -61 26 -63 11 0 -8 -2 -19 -2 -24 -1 -6 -11 -20 -24 -33 -25 -25 -28 -54 -7 -72 11 -9 12 -17 5 -30 -19 -36 -11 -46 53 -62 34 -9 81 -23 105 -30 36 -10 45 -10 51 1 15 24 28 3 22 -35 -5 -33 -11 -39 -48 -51 -43 -15 -93 -62 -93 -89 0 -8 7 -26 16 -39 9 -13 14 -30 11 -37 -4 -8 -6 -6 -6 5 -1 21 -4 21 -40 2 -25 -12 -31 -12 -47 0 -25 19 -64 19 -92 -1 -21 -14 -25 -14 -47 0 -28 18 -40 7 -31 -28 3 -14 19 -29 36 -36 25 -10 30 -19 32 -49 4 -78 -5 -163 -21 -204 -21 -55 -70 -115 -80 -98 -11 18 -252 11 -267 -8 -8 -11 -14 -3 -27 37 -19 58 -21 82 -7 82 6 0 10 -6 10 -14 0 -16 45 -26 109 -25 25 1 37 3 26 6 -54 11 -94 37 -104 66 -6 16 -11 33 -11 37 0 7 111 21 178 23 17 0 32 5 32 10 0 5 14 7 30 3 22 -4 30 -2 30 9 0 8 6 15 14 15 25 0 29 65 6 109 -26 51 -25 57 5 93 14 17 25 34 23 38 -2 4 -38 38 -80 75 -83 72 -95 95 -50 94 28 -1 114 18 188 41 l42 12 -17 29 c-13 23 -14 32 -3 49 30 49 -7 130 -60 130 -15 0 -28 -4 -28 -10 0 -5 -10 -10 -22 -10 -13 -1 -33 -6 -45 -13 -29 -16 -66 -65 -58 -77 10 -15 -6 -12 -26 6 -16 14 -22 15 -61 2 -28 -10 -44 -22 -47 -34 -2 -10 -13 -32 -24 -48 -19 -27 -21 -28 -34 -11 -7 10 -14 17 -16 14 -23 -34 -41 -106 -54 -213 -8 -72 -18 -160 -22 -196 -5 -39 -3 -111 5 -180 15 -134 23 -157 85 -240 15 -19 34 -58 43 -87 25 -77 80 -122 191 -158 77 -25 105 -29 195 -29 91 1 117 6 195 33 50 18 103 35 118 39 23 6 32 17 46 57 24 68 36 204 19 207 -7 1 -29 2 -48 4 -115 7 -193 19 -204 30 -7 7 -23 14 -36 16 -33 5 -47 31 -31 60 9 18 9 31 1 52 -14 37 6 108 29 104 11 -2 16 -14 16 -36 0 -36 -1 -36 25 -22 12 7 17 16 13 26 -5 14 0 16 33 11 86 -13 122 -18 179 -25 57 -7 60 -8 57 -32 -4 -32 -33 -90 -47 -91 -5 -1 -33 -1 -61 1 -29 1 -55 -3 -58 -8 -8 -14 44 -25 124 -26 47 -2 64 -5 62 -15 -1 -7 3 -11 9 -9 35 12 70 279 51 389 -6 35 -14 87 -16 114 -8 71 11 24 24 -62 6 -36 19 -82 29 -102 16 -31 17 -44 9 -94 -8 -45 -7 -65 3 -85 10 -22 13 -24 16 -9 3 9 8 15 13 12 4 -3 6 13 3 35 -4 26 -2 40 6 40 7 0 11 -22 11 -60 0 -33 -4 -60 -10 -60 -17 0 -22 -65 -10 -141 6 -41 13 -101 17 -134 3 -33 9 -64 13 -70 7 -8 7 -80 0 -80 -1 0 -4 -17 -5 -37 -2 -20 -14 -54 -27 -75 -14 -21 -30 -52 -37 -70 -7 -17 -24 -41 -37 -54 -14 -13 -22 -30 -19 -39 8 -26 -45 -69 -99 -79 -46 -8 -65 -22 -66 -46 0 -21 -66 -47 -102 -40 -31 6 -39 3 -69 -29 -47 -50 -138 -81 -193 -67 -23 5 -75 12 -116 16 -98 7 -210 40 -235 69 -11 12 -36 32 -56 44 -19 12 -61 50 -92 84 -32 35 -66 72 -77 84 -11 12 -20 24 -20 28 0 4 -14 37 -30 73 -17 35 -30 70 -30 77 0 8 -7 30 -15 50 -22 51 -11 174 21 241 30 65 41 176 24 254 -12 57 -11 61 20 140 18 44 39 86 46 92 21 17 18 -4 -7 -46 -14 -22 -22 -54 -22 -85 -1 -60 14 -81 39 -56 16 16 15 18 -5 32 -33 24 -23 114 13 114 33 0 58 82 31 103 -7 6 -6 10 3 14 25 10 42 35 42 62 0 15 14 67 30 116 17 49 30 103 30 120 0 20 10 42 29 62 16 18 26 34 23 37 -3 3 3 6 13 6 17 0 17 1 2 18 -25 28 -21 42 13 42 20 0 30 5 30 15 0 8 4 15 10 15 5 0 7 -7 4 -15 -9 -23 10 -18 40 10 30 28 33 55 10 90 -15 23 -15 26 2 42 17 17 14 18 -75 21 -106 3 -118 -3 -123 -56 l-3 -37 -27 30 c-16 16 -28 38 -28 47 0 17 -18 18 -260 18 l-260 0 0 -1000z m687 913 c-4 -3 -7 0 -7 7 0 7 3 10 7 7 3 -4 3 -10 0 -14z m70 -30 c-4 -3 -7 0 -7 7 0 7 3 10 7 7 3 -4 3 -10 0 -14z m721 -288 c-3 -3 -9 2 -12 12 -6 14 -5 15 5 6 7 -7 10 -15 7 -18z m61 -160 c0 -5 -4 -3 -9 5 -5 8 -9 22 -9 30 0 16 17 -16 18 -35z m-335 -202 c-3 -16 -9 -37 -14 -48 -5 -11 -10 -29 -12 -39 -2 -11 -9 -21 -17 -24 -9 -3 -11 2 -6 18 4 14 1 28 -10 41 -15 15 -15 21 -5 34 7 8 21 15 32 15 10 0 21 7 24 15 10 25 15 17 8 -12z"/>
</g>
<g id="layer117" fill="#b39370" stroke="none">
<path d="M0 1000 l0 -1000 1000 0 1000 0 0 1000 0 1000 -175 0 c-165 0 -178 -1 -205 -22 -32 -23 -51 -19 -30 7 26 31 -17 16 -54 -20 -44 -42 -72 -47 -33 -7 15 15 27 31 27 34 0 4 -66 7 -147 7 -110 0 -143 -3 -127 -11 18 -8 44 -46 44 -64 0 -9 -27 21 -32 36 -4 11 -9 8 -18 -12 -7 -15 -9 -34 -5 -45 8 -17 8 -17 12 0 5 19 23 23 23 5 1 -17 46 -68 60 -68 5 0 10 -11 10 -25 0 -14 9 -34 20 -45 11 -11 20 -25 20 -30 0 -5 6 -10 13 -10 19 0 43 -30 51 -62 l6 -27 -48 25 c-26 13 -60 27 -76 30 -15 2 -37 14 -49 25 -37 34 -86 59 -93 47 -4 -7 -9 -7 -13 0 -11 18 -61 26 -63 11 0 -8 -2 -19 -2 -24 -1 -6 -11 -20 -24 -33 -25 -25 -28 -54 -7 -72 11 -9 12 -17 5 -30 -19 -36 -11 -46 53 -62 34 -9 81 -23 105 -30 36 -10 45 -10 51 1 15 24 28 3 22 -35 -5 -33 -11 -39 -48 -51 -43 -15 -93 -62 -93 -89 0 -8 7 -26 16 -39 9 -13 14 -30 11 -37 -4 -8 -6 -6 -6 5 -1 21 -4 21 -40 2 -25 -12 -31 -12 -47 0 -25 19 -64 19 -92 -1 -21 -14 -25 -14 -47 0 -28 18 -40 7 -31 -28 3 -14 19 -29 36 -36 25 -10 30 -19 32 -49 4 -78 -5 -163 -21 -204 -21 -55 -70 -115 -80 -98 -11 18 -252 11 -267 -8 -8 -11 -14 -3 -27 37 -19 58 -21 82 -7 82 6 0 10 -6 10 -14 0 -16 45 -26 109 -25 25 1 37 3 26 6 -54 11 -94 37 -104 66 -6 16 -11 33 -11 37 0 7 111 21 178 23 17 0 32 5 32 10 0 5 14 7 30 3 22 -4 30 -2 30 9 0 8 6 15 14 15 25 0 29 65 6 109 -26 51 -25 57 5 93 14 17 25 34 23 38 -2 4 -38 38 -80 75 -83 72 -95 95 -50 94 28 -1 114 18 188 41 l42 12 -17 29 c-13 23 -14 32 -3 49 30 49 -7 130 -60 130 -15 0 -28 -4 -28 -10 0 -5 -10 -10 -22 -10 -13 -1 -33 -6 -45 -13 -29 -16 -66 -65 -58 -77 10 -15 -6 -12 -26 6 -16 14 -22 15 -61 2 -28 -10 -44 -22 -47 -34 -2 -10 -13 -32 -24 -48 -19 -27 -21 -28 -34 -11 -7 10 -14 17 -16 14 -23 -34 -41 -106 -54 -213 -8 -72 -18 -160 -22 -196 -5 -39 -3 -111 5 -180 15 -134 23 -157 85 -240 15 -19 34 -58 43 -87 25 -77 80 -122 191 -158 77 -25 105 -29 195 -29 91 1 117 6 195 33 50 18 103 35 118 39 23 6 32 17 46 57 24 68 36 204 19 207 -7 1 -29 2 -48 4 -115 7 -193 19 -204 30 -7 7 -23 14 -36 16 -33 5 -47 31 -31 60 9 18 9 31 1 52 -14 37 6 108 29 104 11 -2 16 -14 16 -36 0 -36 -1 -36 25 -22 12 7 17 16 13 26 -5 14 0 16 33 11 86 -13 122 -18 179 -25 57 -7 60 -8 57 -32 -4 -32 -33 -90 -47 -91 -5 -1 -33 -1 -61 1 -29 1 -55 -3 -58 -8 -8 -14 44 -25 124 -26 47 -2 64 -5 62 -15 -1 -7 3 -11 9 -9 35 12 70 279 51 389 -6 35 -14 87 -16 114 -8 71 11 24 24 -62 6 -36 19 -82 29 -102 16 -31 17 -44 9 -94 -8 -45 -7 -65 3 -85 10 -22 13 -24 16 -9 3 9 8 15 13 12 4 -3 6 13 3 35 -4 26 -2 40 6 40 7 0 11 -22 11 -60 0 -33 -4 -60 -10 -60 -17 0 -22 -65 -10 -141 6 -41 13 -101 17 -134 3 -33 9 -64 13 -70 7 -8 7 -80 0 -80 -1 0 -4 -17 -5 -37 -2 -20 -14 -54 -27 -75 -14 -21 -30 -52 -37 -70 -7 -17 -24 -41 -37 -54 -14 -13 -22 -30 -19 -39 8 -26 -45 -69 -99 -79 -46 -8 -65 -22 -66 -46 0 -21 -66 -47 -102 -40 -31 6 -39 3 -69 -29 -47 -50 -138 -81 -193 -67 -23 5 -75 12 -116 16 -98 7 -210 40 -235 69 -11 12 -36 32 -56 44 -19 12 -61 50 -92 84 -32 35 -66 72 -77 84 -11 12 -20 24 -20 28 0 4 -14 37 -30 73 -17 35 -30 70 -30 77 0 8 -7 30 -15 50 -22 51 -11 174 21 241 30 65 41 176 24 254 -12 57 -11 61 20 140 18 44 39 86 46 92 21 17 18 -4 -7 -46 -14 -22 -22 -54 -22 -85 -1 -60 14 -81 39 -56 16 16 15 18 -5 32 -33 24 -23 114 13 114 33 0 58 82 31 103 -7 6 -6 10 3 14 25 10 42 35 42 62 0 15 14 67 30 116 17 49 30 103 30 120 0 20 10 42 29 62 16 18 26 34 23 37 -3 3 3 6 13 6 17 0 17 1 2 18 -25 28 -21 42 13 42 20 0 30 5 30 15 0 8 4 15 10 15 5 0 7 -7 4 -15 -9 -23 10 -18 40 10 30 28 33 55 10 90 -15 23 -15 26 2 42 17 17 14 18 -75 21 -106 3 -121 -4 -121 -55 0 -31 -2 -33 -20 -23 -12 6 -28 27 -37 46 -16 33 -42 50 -29 19 20 -50 22 -48 -20 -30 -22 9 -49 23 -61 31 -18 11 -64 14 -218 14 l-195 0 0 -1000z m687 913 c-4 -3 -7 0 -7 7 0 7 3 10 7 7 3 -4 3 -10 0 -14z m70 -30 c-4 -3 -7 0 -7 7 0 7 3 10 7 7 3 -4 3 -10 0 -14z m721 -288 c-3 -3 -9 2 -12 12 -6 14 -5 15 5 6 7 -7 10 -15 7 -18z m61 -160 c0 -5 -4 -3 -9 5 -5 8 -9 22 -9 30 0 16 17 -16 18 -35z m-335 -202 c-3 -16 -9 -37 -14 -48 -5 -11 -10 -29 -12 -39 -2 -11 -9 -21 -17 -24 -9 -3 -11 2 -6 18 4 14 1 28 -10 41 -15 15 -15 21 -5 34 7 8 21 15 32 15 10 0 21 7 24 15 10 25 15 17 8 -12z"/>
<path d="M855 1973 c8 -33 3 -29 38 -37 20 -5 29 -2 33 9 8 20 34 20 34 0 0 -11 9 -14 33 -12 45 5 67 16 60 33 -3 8 -1 14 4 14 13 0 99 -56 107 -69 10 -16 26 -13 26 4 0 8 4 15 10 15 5 0 7 6 4 13 -3 8 2 20 11 27 8 7 15 16 15 20 0 5 -86 9 -191 10 l-191 1 7 -28z m46 -16 c-13 -13 -26 -3 -16 12 3 6 11 8 17 5 6 -4 6 -10 -1 -17z"/>
<path d="M1084 1935 c11 -8 25 -15 30 -15 6 0 2 7 -8 15 -11 8 -25 15 -30 15 -6 0 -2 -7 8 -15z"/>
<path d="M660 1630 c0 -7 3 -10 7 -7 3 4 3 10 0 14 -4 3 -7 0 -7 -7z"/>
<path d="M993 1433 c4 -3 10 -3 14 0 3 4 0 7 -7 7 -7 0 -10 -3 -7 -7z"/>
<path d="M1020 1429 c0 -7 8 -18 18 -25 14 -11 14 -15 3 -23 -21 -13 -5 -50 19 -44 11 3 26 0 33 -6 17 -14 27 -4 27 26 0 14 -6 23 -15 23 -8 0 -15 5 -15 10 0 6 6 10 13 10 7 0 18 9 25 20 12 19 10 20 -48 20 -38 0 -60 -4 -60 -11z"/>
<path d="M970 1160 c0 -7 3 -10 7 -7 3 4 3 10 0 14 -4 3 -7 0 -7 -7z"/>
<path d="M763 1043 c-15 -5 -18 -33 -4 -33 8 0 25 30 19 35 -2 1 -9 0 -15 -2z"/>
<path d="M854 1024 c3 -9 6 -18 6 -20 0 -3 10 0 21 7 17 9 19 13 8 20 -23 14 -42 11 -35 -7z"/>
<path d="M1334 1028 c3 -7 9 -21 12 -30 8 -23 23 -23 31 -2 4 11 -1 22 -12 30 -23 17 -39 18 -31 2z"/>
<path d="M1222 1023 c-22 -4 -23 -5 -5 -18 24 -19 30 -18 43 5 11 21 9 22 -38 13z"/>
<path d="M1038 43 c6 -2 18 -2 25 0 6 3 1 5 -13 5 -14 0 -19 -2 -12 -5z"/>
</g>
<g id="layer118" fill="#c29d78" stroke="none">
<path d="M0 1000 l0 -1000 1000 0 1000 0 0 1000 0 1000 -175 0 c-165 0 -178 -1 -205 -22 -32 -23 -51 -19 -30 7 26 31 -17 15 -55 -21 -21 -19 -44 -33 -51 -30 -8 3 -18 -3 -24 -14 -11 -21 -40 -17 -40 7 0 8 -8 22 -17 31 -16 16 -16 17 0 20 9 2 17 8 17 13 0 5 -31 9 -70 9 -62 0 -69 -2 -63 -17 3 -10 17 -28 29 -39 27 -24 31 -36 9 -28 -8 4 -15 1 -15 -5 0 -6 5 -11 10 -11 6 0 10 -5 10 -10 0 -6 9 -21 21 -33 l20 -22 -6 30 -6 30 19 -23 c11 -12 27 -20 35 -16 8 3 22 -2 31 -11 13 -14 16 -35 15 -109 -2 -76 1 -98 19 -133 13 -24 19 -49 15 -59 -4 -10 -2 -15 3 -11 14 8 30 -40 57 -179 14 -66 32 -133 42 -147 14 -23 16 -35 7 -83 -10 -58 -6 -98 8 -89 5 3 11 23 15 45 10 60 25 48 25 -20 0 -40 -6 -70 -17 -86 -14 -22 -15 -35 -4 -117 7 -51 15 -118 18 -150 3 -31 9 -60 14 -63 13 -7 11 -71 -1 -79 -6 -4 -8 -15 -5 -26 6 -17 -29 -105 -46 -119 -4 -3 -10 -15 -14 -28 -4 -13 -20 -39 -37 -57 -16 -19 -26 -39 -23 -46 14 -21 -45 -68 -101 -79 -44 -9 -55 -16 -60 -35 -8 -34 -59 -58 -105 -50 -33 6 -40 3 -73 -33 -49 -52 -135 -80 -198 -64 -24 6 -75 13 -115 16 -79 7 -231 50 -239 69 -2 7 -32 34 -67 61 -34 27 -75 66 -92 88 -16 22 -40 49 -52 60 -13 12 -23 26 -23 31 0 5 -14 38 -30 74 -17 35 -30 70 -30 77 0 8 -7 30 -16 51 -20 49 -10 186 17 231 29 49 45 173 31 243 -15 70 -15 96 -2 119 5 9 19 42 30 72 27 75 36 88 51 73 8 -8 8 -16 0 -32 -9 -17 -9 -21 2 -21 7 0 20 11 27 25 11 20 11 30 1 51 -11 25 -9 30 18 55 20 18 31 38 31 56 0 15 12 60 27 98 22 61 26 90 30 222 l5 151 -31 17 c-18 9 -39 31 -48 50 -16 34 -42 51 -29 20 20 -50 22 -48 -20 -30 -22 9 -49 23 -61 31 -18 11 -64 14 -218 14 l-195 0 0 -1000z"/>
<path d="M646 1984 c-4 -10 -1 -14 6 -12 15 5 23 28 10 28 -5 0 -13 -7 -16 -16z"/>
<path d="M690 1992 c0 -5 18 -9 40 -10 22 -1 40 3 40 8 0 6 -18 10 -40 10 -22 0 -40 -4 -40 -8z"/>
<path d="M1385 1820 c-11 -17 5 -32 21 -19 7 6 11 15 8 20 -7 12 -21 11 -29 -1z"/>
<path d="M1134 1735 c-13 -13 -24 -33 -24 -44 0 -11 -4 -21 -10 -23 -17 -6 9 -77 36 -94 13 -9 36 -17 52 -18 15 -1 32 -4 37 -7 26 -16 63 -18 75 -4 16 19 37 9 44 -21 8 -31 -18 -72 -50 -80 -14 -4 -30 -15 -37 -25 -7 -10 -25 -23 -40 -28 -30 -12 -34 -35 -13 -76 16 -31 10 -134 -10 -174 -16 -30 -11 -41 16 -34 10 3 32 -4 47 -15 16 -11 53 -22 88 -25 50 -5 64 -3 85 13 14 11 30 20 37 20 15 0 33 -54 33 -101 0 -27 4 -39 14 -39 30 0 50 158 34 267 -6 43 -14 107 -18 143 -4 36 -8 57 -8 48 -2 -23 -21 -23 -29 -2 -4 10 1 22 11 29 13 10 14 18 6 39 -10 27 -30 27 -30 0 0 -17 -20 -19 -21 -1 -1 6 0 22 1 35 1 14 -4 22 -14 22 -18 0 -21 15 -7 25 12 7 -20 65 -36 65 -7 0 -17 9 -23 21 -11 20 -27 21 -74 3 -12 -5 -16 0 -16 17 -1 70 -107 113 -156 64z m343 -302 c-4 -3 -10 -3 -14 0 -3 4 0 7 7 7 7 0 10 -3 7 -7z"/>
<path d="M888 1739 c-25 -9 -41 -34 -37 -55 3 -21 -14 -53 -32 -57 -11 -3 -19 -14 -20 -29 0 -13 -3 -17 -6 -9 -9 21 -45 61 -57 61 -5 0 0 -10 12 -23 28 -29 28 -42 0 -61 -28 -20 -30 -20 -56 4 l-22 21 0 -21 c0 -11 7 -20 15 -20 8 0 15 -5 15 -12 0 -6 -3 -8 -6 -5 -12 11 -44 -13 -44 -33 0 -10 -4 -22 -10 -25 -5 -3 -10 -14 -10 -25 0 -13 -5 -17 -19 -13 -16 4 -19 -1 -19 -34 0 -53 -19 -142 -34 -160 -14 -17 -19 -235 -6 -248 11 -12 49 20 63 53 12 26 20 32 47 33 18 1 36 1 40 0 5 0 44 6 88 15 68 14 83 14 97 3 14 -12 15 -11 9 9 -5 16 -3 22 7 22 18 0 31 74 17 100 -16 29 -12 58 13 92 17 24 19 32 8 36 -7 2 -39 30 -70 61 -31 31 -63 56 -71 56 -8 0 -15 6 -14 13 1 6 2 23 3 37 1 28 25 34 39 9 7 -12 14 -14 28 -7 10 6 40 13 65 16 80 11 99 24 99 71 0 23 0 57 0 76 0 21 -7 40 -17 48 -20 14 -76 15 -115 1z"/>
<path d="M591 1523 c1 -10 5 -29 9 -43 7 -21 8 -22 9 -4 1 11 7 26 13 32 10 10 10 15 -2 22 -22 14 -30 12 -29 -7z"/>
<path d="M1030 1431 c0 -5 7 -14 15 -21 8 -7 15 -20 15 -29 0 -18 38 -46 48 -36 4 4 -1 11 -11 16 -23 13 -22 46 3 54 11 4 18 11 15 16 -8 12 -85 12 -85 0z"/>
<path d="M1011 1264 c-18 -21 -20 -28 -10 -35 8 -5 19 -9 25 -9 6 0 17 -7 25 -16 10 -12 10 -20 1 -34 -9 -14 -9 -27 -1 -47 l11 -28 23 29 c17 21 22 38 18 57 -4 23 0 29 28 42 19 8 42 17 52 21 9 3 17 12 17 21 0 21 -46 20 -54 -1 -6 -15 -9 -15 -29 5 -32 30 -78 28 -106 -5z"/>
<path d="M1056 1071 c-4 -5 -12 -8 -19 -5 -8 3 -14 -7 -15 -28 -2 -18 -9 -43 -17 -55 -8 -12 -15 -29 -15 -37 0 -9 -13 -30 -28 -47 l-28 -31 -131 -1 c-135 -1 -137 -2 -105 -39 10 -12 12 -27 8 -50 -15 -73 -8 -98 45 -160 56 -64 87 -84 164 -104 68 -18 210 -17 260 2 22 9 58 20 79 25 21 5 51 18 65 28 14 10 36 22 49 25 12 4 20 12 16 17 -3 6 0 16 6 24 6 8 9 18 6 23 -3 5 -8 26 -10 46 -3 28 1 46 20 73 28 42 24 54 -19 52 -18 0 -57 4 -88 9 -30 6 -62 10 -70 9 -8 0 -36 5 -63 12 -39 11 -51 20 -61 45 -11 26 -11 32 1 39 20 12 17 35 -7 47 -19 11 -19 13 -5 35 20 31 22 62 3 46 -10 -7 -17 -7 -24 0 -7 7 -13 8 -17 0z"/>
<path d="M1425 910 c-3 -5 1 -10 9 -10 9 0 16 5 16 10 0 6 -4 10 -9 10 -6 0 -13 -4 -16 -10z"/>
</g>
<g id="layer119" fill="#c1a37c" stroke="none">
<path d="M0 1000 l0 -1000 1000 0 1000 0 0 1000 0 1000 -175 0 c-165 0 -178 -1 -205 -22 -32 -23 -51 -19 -30 7 26 31 -17 16 -55 -20 -20 -20 -44 -34 -53 -33 -11 2 -18 -6 -22 -24 -4 -22 -8 -25 -20 -15 -24 19 -50 64 -50 87 0 18 -6 20 -55 20 -47 0 -54 -2 -48 -17 3 -10 17 -28 29 -39 27 -24 31 -36 9 -28 -8 4 -15 1 -15 -5 0 -6 5 -11 10 -11 6 0 10 -5 10 -10 0 -6 9 -21 21 -33 l20 -22 -6 30 -6 30 19 -22 c18 -21 21 -21 27 -5 6 15 10 13 31 -11 23 -27 25 -36 23 -120 -2 -77 1 -99 19 -134 13 -24 19 -49 15 -59 -4 -10 -2 -15 3 -11 15 8 30 -40 58 -182 18 -88 31 -130 46 -146 20 -21 20 -26 9 -89 -6 -37 -8 -70 -5 -73 3 -4 6 3 6 14 0 26 25 75 33 66 14 -13 7 -125 -9 -153 -15 -25 -16 -38 -4 -116 6 -49 14 -115 17 -147 3 -31 9 -60 14 -63 13 -7 11 -71 -1 -79 -6 -4 -8 -15 -5 -26 6 -17 -29 -105 -46 -119 -4 -3 -10 -15 -14 -28 -4 -13 -20 -39 -37 -57 -16 -19 -26 -39 -23 -46 14 -21 -45 -68 -101 -79 -44 -9 -55 -16 -60 -35 -8 -34 -59 -58 -105 -50 -33 6 -40 3 -73 -33 -49 -52 -135 -80 -198 -64 -24 6 -75 13 -115 16 -79 7 -231 50 -239 69 -2 7 -32 34 -67 61 -34 27 -75 66 -92 88 -16 22 -40 49 -52 60 -13 12 -23 26 -23 31 0 5 -14 38 -30 74 -17 35 -30 70 -30 77 0 8 -7 30 -16 51 -20 49 -10 186 17 232 29 47 46 182 31 238 -19 70 -15 100 25 193 26 60 51 101 85 135 33 33 48 58 48 76 0 14 12 58 27 96 22 61 26 90 30 222 l5 151 -31 17 c-18 9 -39 31 -48 50 -16 34 -42 51 -29 20 20 -50 22 -48 -20 -30 -22 9 -49 23 -61 31 -18 11 -64 14 -218 14 l-195 0 0 -1000z m1410 899 c0 -6 -4 -7 -10 -4 -5 3 -10 11 -10 16 0 6 5 7 10 4 6 -3 10 -11 10 -16z"/>
<path d="M650 1990 c0 -5 5 -10 10 -10 6 0 10 5 10 10 0 6 -4 10 -10 10 -5 0 -10 -4 -10 -10z"/>
<path d="M690 1993 c0 -5 18 -9 40 -11 22 -1 40 2 40 8 0 5 -18 10 -40 10 -22 0 -40 -3 -40 -7z"/>
<path d="M1043 1993 c4 -3 10 -3 14 0 3 4 0 7 -7 7 -7 0 -10 -3 -7 -7z"/>
<path d="M1123 1985 c5 -11 0 -13 -26 -9 l-32 6 35 -20 c36 -20 66 -13 56 14 -3 7 4 15 17 17 13 2 5 5 -17 6 -30 1 -37 -2 -33 -14z"/>
<path d="M1035 1960 c-3 -5 -1 -10 4 -10 6 0 11 5 11 10 0 6 -2 10 -4 10 -3 0 -8 -4 -11 -10z"/>
<path d="M1390 1820 c-11 -7 -12 -12 -4 -20 8 -8 14 -7 23 4 14 17 1 28 -19 16z"/>
<path d="M1144 1746 c-18 -14 -35 -98 -27 -133 3 -13 12 -23 20 -23 8 0 12 -4 8 -9 -3 -5 4 -13 16 -16 13 -5 25 -2 29 6 13 20 52 19 57 -2 8 -28 34 -32 60 -8 12 13 23 28 23 36 0 7 5 13 11 13 6 0 8 -8 4 -19 -3 -10 1 -24 10 -31 10 -8 13 -20 9 -34 -4 -11 -7 -33 -6 -47 0 -23 -4 -27 -37 -33 -51 -8 -138 -91 -119 -113 21 -26 28 -142 10 -180 -17 -37 -11 -53 13 -33 14 12 20 10 38 -13 33 -39 111 -42 128 -4 7 15 25 27 54 35 23 6 50 19 59 28 16 15 16 9 11 -82 -3 -53 -7 -102 -8 -107 -4 -18 21 -18 27 0 18 62 25 178 14 250 -6 43 -14 107 -18 143 -4 36 -8 57 -8 48 -1 -10 -6 -18 -11 -18 -5 0 -17 -7 -26 -16 -21 -21 -23 -17 -26 36 -1 25 -6 50 -11 57 -5 6 -8 20 -6 30 2 10 -2 17 -9 16 -18 -4 -16 22 1 36 12 10 12 16 -2 42 -9 16 -22 29 -28 29 -6 0 -18 9 -25 21 -11 16 -20 19 -42 14 -15 -4 -27 -13 -27 -21 0 -8 -9 -14 -21 -14 -20 0 -21 4 -3 55 4 12 -4 24 -33 49 -27 23 -85 29 -109 12z m13 -113 c-4 -3 -7 0 -7 7 0 7 3 10 7 7 3 -4 3 -10 0 -14z m308 -343 c3 -5 -1 -10 -9 -10 -8 0 -18 5 -21 10 -3 6 1 10 9 10 8 0 18 -4 21 -10z"/>
<path d="M888 1739 c-25 -9 -41 -34 -37 -55 3 -20 -14 -54 -27 -54 -20 0 -30 -30 -13 -41 11 -7 11 -9 -3 -9 -10 0 -18 5 -18 12 0 6 -9 1 -20 -12 -11 -13 -20 -27 -20 -32 0 -5 -4 -6 -10 -3 -5 3 -10 -2 -11 -12 0 -14 -2 -15 -6 -3 -11 27 -53 52 -53 31 0 -5 10 -12 23 -16 l22 -7 -25 -7 c-16 -5 -24 -13 -22 -24 2 -9 -1 -17 -6 -17 -14 0 -23 -27 -16 -45 4 -8 13 -15 21 -15 8 0 13 -6 10 -12 -4 -14 -20 -15 -54 -4 -17 5 -21 3 -18 -11 1 -10 -2 -26 -7 -36 -5 -11 -11 -32 -13 -49 -3 -16 -11 -44 -20 -61 -9 -18 -19 -55 -22 -83 -7 -62 5 -184 17 -184 31 0 46 121 18 139 -19 12 -14 41 8 41 8 0 23 -9 34 -20 11 -11 30 -20 43 -20 13 0 27 -4 32 -9 6 -4 27 -11 48 -14 30 -5 40 -2 50 14 9 15 23 19 64 19 53 0 53 0 55 33 1 17 0 51 -1 75 -2 24 2 56 9 72 11 27 9 31 -45 84 -43 42 -65 56 -86 56 -29 0 -40 22 -19 35 6 3 10 17 10 30 0 33 14 39 55 23 27 -9 40 -10 54 -1 10 7 28 9 38 7 11 -3 36 1 55 9 l35 15 -4 73 c-2 40 -9 79 -15 86 -12 15 -71 16 -110 2z"/>
<path d="M590 1523 c0 -10 5 -25 10 -33 8 -13 10 -13 10 2 0 9 6 19 13 21 9 4 8 8 -3 16 -22 15 -30 13 -30 -6z"/>
<path d="M1494 1490 c3 -14 6 -28 6 -32 0 -5 5 -8 11 -8 12 0 2 39 -13 55 -7 7 -9 2 -4 -15z"/>
<path d="M1473 1453 c4 -3 10 -3 14 0 3 4 0 7 -7 7 -7 0 -10 -3 -7 -7z"/>
<path d="M1040 1435 c0 -3 4 -13 9 -23 5 -9 13 -26 17 -37 7 -18 8 -18 12 5 2 14 10 29 18 33 21 12 7 27 -27 27 -16 0 -29 -2 -29 -5z"/>
<path d="M468 1286 c-2 -20 0 -36 4 -36 13 0 21 51 10 62 -6 6 -11 -2 -14 -26z"/>
<path d="M1050 1281 c-33 -9 -36 -41 -6 -63 23 -17 26 -17 54 -1 l30 17 -21 28 c-11 15 -23 28 -26 27 -3 -1 -17 -4 -31 -8z"/>
<path d="M1165 1260 c3 -5 8 -10 11 -10 2 0 4 5 4 10 0 6 -5 10 -11 10 -5 0 -7 -4 -4 -10z"/>
<path d="M850 1033 c1 -20 16 -31 30 -22 13 8 13 10 0 19 -18 12 -30 13 -30 3z"/>
<path d="M1343 1009 c12 -31 22 -37 30 -16 6 17 -3 32 -24 39 -15 6 -15 3 -6 -23z"/>
<path d="M1240 1020 c-12 -7 -12 -12 -3 -21 10 -10 14 -9 19 5 8 22 2 27 -16 16z"/>
<path d="M1013 982 c-11 -15 -24 -38 -28 -51 -4 -13 -19 -34 -34 -47 -22 -19 -34 -21 -72 -17 -26 3 -82 2 -125 -2 l-79 -7 25 -20 c26 -21 70 -77 70 -90 0 -4 -6 -5 -14 -2 -9 3 -20 -6 -29 -24 -13 -27 -13 -34 0 -60 20 -41 81 -106 118 -124 81 -41 272 -50 345 -16 19 9 53 22 74 30 28 9 43 22 53 45 19 47 16 59 -17 73 -16 7 -30 16 -30 21 0 5 -7 9 -16 9 -14 0 -14 3 -4 15 7 8 27 15 45 15 25 0 40 8 64 35 17 20 31 39 31 43 0 10 -84 32 -141 37 -49 4 -111 19 -128 30 -7 4 -17 18 -22 32 -7 20 -6 30 7 44 16 17 15 19 -9 28 -14 5 -28 15 -32 20 -11 19 -30 12 -52 -17z m207 -302 c0 -5 -4 -10 -10 -10 -5 0 -10 5 -10 10 0 6 5 10 10 10 6 0 10 -4 10 -10z"/>
<path d="M1043 43 c4 -3 10 -3 14 0 3 4 0 7 -7 7 -7 0 -10 -3 -7 -7z"/>
</g>
<g id="layer120" fill="#a5aa9c" stroke="none">
<path d="M0 1000 l0 -1000 1000 0 1000 0 0 1000 0 1000 -175 0 c-165 0 -178 -1 -205 -22 -32 -23 -51 -19 -30 7 26 31 -17 16 -54 -20 -21 -19 -43 -35 -50 -35 -24 0 -35 -282 -13 -315 31 -46 67 -168 97 -329 5 -27 14 -54 20 -60 8 -8 10 -3 4 19 -13 58 13 11 36 -65 28 -91 30 -175 5 -217 -16 -27 -16 -38 -5 -114 6 -46 14 -106 17 -134 2 -27 9 -60 15 -72 6 -12 8 -36 4 -55 -4 -18 -7 -42 -7 -53 0 -19 -37 -105 -50 -115 -4 -3 -10 -15 -14 -28 -4 -13 -20 -39 -37 -57 -16 -19 -26 -39 -23 -46 14 -21 -45 -68 -101 -79 -42 -9 -53 -16 -58 -35 -8 -32 -65 -59 -106 -50 -27 6 -37 1 -78 -38 -61 -56 -128 -75 -206 -59 -28 6 -78 14 -111 17 -87 8 -213 44 -228 65 -7 10 -37 37 -67 60 -54 42 -105 93 -146 147 -24 32 -84 164 -84 186 0 8 -7 31 -16 52 -20 49 -10 186 17 230 10 17 23 63 30 102 10 60 9 82 -5 145 -17 79 -17 80 22 173 39 91 70 141 100 160 22 14 33 31 38 55 3 19 17 69 30 110 21 65 24 94 24 222 l0 147 -29 20 c-15 11 -34 34 -41 51 -7 16 -17 30 -22 30 -6 0 -7 -7 -4 -15 20 -50 22 -48 -20 -30 -22 9 -49 23 -61 31 -18 11 -64 14 -218 14 l-195 0 0 -1000z"/>
<path d="M750 1025 c0 -8 4 -15 9 -15 5 0 11 7 15 15 3 9 0 15 -9 15 -8 0 -15 -7 -15 -15z"/>
<path d="M854 1024 c3 -9 6 -17 6 -20 0 -2 7 -1 15 2 12 5 13 10 4 20 -16 19 -33 18 -25 -2z"/>
<path d="M1241 1016 c-8 -10 -9 -16 -1 -21 5 -3 13 1 16 10 9 22 -1 29 -15 11z"/>
<path d="M1346 1008 c9 -31 14 -35 24 -18 5 9 5 19 -2 27 -17 21 -30 15 -22 -9z"/>
</g>
<g id="layer121" fill="#ccb18c" stroke="none">
<path d="M0 1000 l0 -1000 1000 0 1000 0 0 1000 0 1000 -174 0 c-117 0 -177 -4 -182 -11 -8 -14 -74 -42 -82 -35 -3 3 3 15 13 26 37 41 -3 18 -53 -30 l-53 -51 -2 -132 c-2 -129 -1 -134 30 -205 29 -65 46 -130 73 -276 5 -27 14 -54 20 -60 8 -8 10 -3 4 19 -13 58 13 11 36 -65 27 -88 30 -178 7 -213 -14 -21 -14 -34 -1 -123 7 -54 14 -118 14 -141 0 -23 5 -45 11 -49 22 -13 1 -149 -30 -203 -16 -26 -32 -59 -36 -72 -4 -13 -18 -35 -31 -48 -13 -13 -24 -34 -24 -46 0 -32 -44 -65 -105 -77 -48 -9 -55 -14 -60 -39 -4 -16 -12 -29 -20 -29 -7 0 -18 -7 -26 -16 -12 -14 -31 -14 -72 2 -9 3 -35 -12 -64 -39 -55 -48 -123 -73 -175 -63 -18 3 -73 11 -123 16 -112 11 -224 44 -250 74 -11 12 -42 39 -70 61 -122 94 -173 171 -232 345 -23 65 -25 84 -19 158 4 59 12 92 25 111 32 44 44 168 26 250 -17 71 -16 73 23 166 38 91 70 141 99 160 23 15 33 30 38 58 4 21 18 73 31 114 21 65 24 96 24 219 l0 143 -57 21 c-32 12 -81 35 -109 51 l-51 29 -187 0 -186 0 0 -1000z"/>
<path d="M1123 1993 c4 -3 10 -3 14 0 3 4 0 7 -7 7 -7 0 -10 -3 -7 -7z"/>
<path d="M1140 1710 c0 -7 3 -10 7 -7 3 4 3 10 0 14 -4 3 -7 0 -7 -7z"/>
<path d="M893 1687 c4 -10 7 -25 7 -33 0 -11 6 -13 21 -9 19 6 21 4 17 -18 -4 -23 -2 -25 26 -24 27 2 31 5 31 32 0 25 -4 30 -24 30 -14 0 -26 6 -29 13 -2 7 -8 9 -13 6 -6 -3 -17 0 -26 8 -15 11 -16 11 -10 -5z"/>
<path d="M1132 1640 c0 -14 2 -19 5 -12 2 6 2 18 0 25 -3 6 -5 1 -5 -13z"/>
<path d="M1165 1620 c-3 -5 -1 -10 4 -10 6 0 11 5 11 10 0 6 -2 10 -4 10 -3 0 -8 -4 -11 -10z"/>
<path d="M875 1600 c4 -6 11 -8 16 -5 14 9 11 15 -7 15 -8 0 -12 -5 -9 -10z"/>
<path d="M1078 1423 c7 -3 16 -2 19 1 4 3 -2 6 -13 5 -11 0 -14 -3 -6 -6z"/>
<path d="M1284 1403 c-17 -8 -38 -29 -46 -46 -20 -39 -21 -127 -1 -127 17 0 17 -21 -2 -56 l-15 -29 38 -5 c29 -4 38 -10 40 -28 5 -32 27 -37 51 -13 12 12 17 21 11 21 -5 0 -10 7 -10 16 0 11 6 13 19 9 13 -4 24 1 35 16 10 15 21 20 35 16 18 -4 20 -2 15 21 -9 38 -13 42 -35 42 -16 0 -18 4 -11 18 5 9 7 23 5 30 -3 7 0 18 6 26 7 9 7 22 -1 47 -6 19 -12 40 -14 47 -5 17 -19 15 -39 -4 -14 -15 -18 -15 -33 -1 -15 13 -21 13 -48 0z m56 -53 c-18 -11 -24 -6 -16 16 5 14 9 15 19 5 9 -9 9 -14 -3 -21z"/>
<path d="M733 1393 c-7 -2 -13 -11 -13 -19 0 -8 -9 -22 -20 -31 -24 -21 -26 -38 -4 -29 14 5 15 4 4 -9 -7 -8 -10 -24 -7 -36 3 -12 0 -22 -9 -26 -22 -8 -17 -20 9 -19 18 1 22 -4 20 -26 -1 -22 3 -28 18 -28 11 0 22 6 24 13 5 11 85 21 85 9 0 -2 -8 -11 -17 -18 -16 -12 -13 -13 25 -14 40 0 54 11 32 25 -17 11 -11 32 11 38 16 4 19 11 14 26 -3 11 -2 36 4 55 11 42 3 52 -72 77 -52 18 -81 22 -104 12z m57 -137 c0 -3 -4 -8 -10 -11 -5 -3 -10 -1 -10 4 0 6 5 11 10 11 6 0 10 -2 10 -4z"/>
<path d="M1040 1270 c-12 -7 -12 -12 0 -34 15 -29 28 -32 54 -13 15 11 17 17 7 35 -12 23 -36 28 -61 12z"/>
<path d="M1621 1134 c0 -11 3 -14 6 -6 3 7 2 16 -1 19 -3 4 -6 -2 -5 -13z"/>
<path d="M1011 964 c-12 -15 -21 -32 -21 -38 0 -7 -15 -27 -33 -44 l-33 -32 -76 8 c-41 4 -80 6 -87 4 -14 -5 -15 -32 -1 -32 6 0 10 -7 10 -15 0 -9 11 -20 24 -24 13 -5 26 -17 29 -25 4 -10 18 -16 36 -16 41 0 81 -19 74 -36 -6 -16 -70 -19 -93 -4 -9 5 -19 5 -27 -2 -7 -6 -22 -8 -33 -5 -22 6 -27 -12 -8 -31 7 -7 21 -31 33 -54 16 -33 34 -49 81 -75 83 -45 155 -47 279 -8 75 23 94 34 111 60 l21 32 -24 21 c-19 17 -29 19 -50 11 -33 -12 -53 4 -53 42 0 29 6 33 45 30 26 -2 95 26 95 39 0 6 7 10 15 10 18 0 20 24 3 38 -12 9 -98 27 -170 35 -52 6 -96 76 -60 96 13 7 9 12 -16 25 -41 21 -47 20 -71 -10z m-51 -275 c0 -5 -4 -9 -10 -9 -5 0 -10 7 -10 16 0 8 5 12 10 9 6 -3 10 -10 10 -16z"/>
</g>
<g id="layer122" fill="#c8b19b" stroke="none">
<path d="M0 1000 l0 -1000 1000 0 1000 0 0 1000 0 1000 -174 0 c-117 0 -177 -4 -182 -11 -8 -14 -74 -42 -82 -35 -3 3 3 15 13 26 37 41 -3 18 -52 -29 l-52 -50 -3 -133 c-3 -131 -2 -134 29 -205 17 -40 37 -101 43 -135 11 -63 33 -119 56 -148 7 -8 25 -60 39 -115 27 -105 28 -159 0 -201 -11 -18 -11 -36 1 -120 7 -54 14 -118 14 -141 0 -23 5 -45 11 -49 22 -13 1 -149 -30 -203 -16 -26 -32 -59 -36 -72 -4 -13 -18 -35 -31 -48 -13 -13 -24 -34 -24 -46 0 -32 -44 -65 -105 -77 -48 -9 -55 -14 -60 -39 -4 -16 -12 -29 -20 -29 -7 0 -18 -7 -26 -16 -12 -14 -31 -14 -72 2 -9 3 -35 -12 -64 -39 -55 -48 -123 -73 -175 -63 -18 4 -72 10 -120 15 -118 12 -235 48 -255 78 -8 13 -21 23 -28 23 -7 0 -15 4 -17 9 -1 5 -29 30 -60 55 -89 72 -141 156 -195 316 -23 65 -25 84 -19 158 4 59 12 92 25 111 11 16 24 59 30 104 9 64 8 89 -6 145 l-16 69 38 94 c39 98 83 164 115 174 12 4 21 19 25 46 4 22 18 75 31 116 21 65 24 96 24 219 l0 143 -57 21 c-32 12 -81 35 -109 51 l-51 29 -187 0 -186 0 0 -1000z"/>
<path d="M1056 1261 c-9 -14 4 -41 19 -41 18 0 26 15 19 34 -7 17 -29 21 -38 7z"/>
<path d="M857 1024 c6 -15 23 -19 23 -5 0 5 -7 11 -14 14 -10 4 -13 1 -9 -9z"/>
<path d="M754 1018 c-4 -7 -3 -8 4 -4 12 7 16 16 8 16 -3 0 -8 -5 -12 -12z"/>
<path d="M1241 1016 c-7 -8 -8 -17 -3 -20 6 -3 13 1 16 10 9 23 2 28 -13 10z"/>
<path d="M1347 1009 c3 -10 9 -16 14 -13 13 8 11 21 -5 27 -10 4 -12 0 -9 -14z"/>
<path d="M983 900 c-38 -37 -59 -50 -81 -50 -64 0 -83 -26 -34 -48 15 -7 38 -19 52 -27 15 -10 36 -13 55 -10 45 9 137 9 158 0 19 -8 113 -2 123 8 4 3 4 18 0 32 -5 18 -13 25 -31 25 -13 0 -27 5 -31 11 -3 6 -16 8 -28 5 -46 -12 -96 32 -96 84 0 34 -32 22 -87 -30z"/>
<path d="M983 672 c-4 -17 -13 -22 -39 -22 -18 0 -36 5 -39 10 -3 6 -24 10 -47 10 -32 0 -39 -3 -34 -16 3 -9 6 -22 6 -30 0 -21 164 -99 187 -89 10 5 44 9 75 10 32 1 65 8 74 16 9 7 25 18 37 24 24 12 36 38 16 33 -25 -5 -97 31 -104 52 -7 21 -42 26 -80 11 -12 -5 -25 -4 -33 2 -10 8 -14 5 -19 -11z"/>
</g>
<g id="layer123" fill="#b8c3b3" stroke="none">
<path d="M0 1000 l0 -1000 1000 0 1000 0 0 1000 0 1000 -174 0 c-117 0 -177 -4 -182 -11 -8 -14 -74 -42 -82 -35 -3 3 3 15 13 26 36 40 -4 19 -51 -27 l-49 -48 -6 -125 c-7 -121 -6 -127 21 -190 34 -81 47 -122 55 -180 4 -25 18 -63 31 -85 74 -124 106 -313 61 -363 -9 -10 -13 -28 -11 -42 12 -66 36 -272 39 -329 4 -66 -4 -90 -55 -181 -11 -19 -20 -40 -20 -46 0 -6 -11 -21 -25 -34 -14 -13 -25 -33 -25 -45 0 -28 -42 -64 -83 -72 -41 -7 -77 -29 -77 -47 0 -24 -67 -57 -98 -49 -39 10 -52 5 -94 -37 -47 -46 -108 -65 -181 -56 -28 4 -86 11 -127 16 -121 14 -250 55 -250 81 0 5 -8 13 -17 16 -9 4 -24 14 -33 22 -9 9 -42 40 -73 69 -31 30 -57 59 -57 66 0 7 -11 23 -25 36 -14 13 -25 27 -25 32 0 5 -11 34 -25 64 -14 30 -25 61 -25 68 0 7 -7 31 -16 52 -23 53 -13 197 16 246 11 19 22 61 25 93 3 32 8 61 10 65 2 4 -2 33 -10 66 -24 98 -23 103 57 272 11 23 36 56 56 72 27 22 40 43 48 78 7 26 21 81 33 122 21 77 27 186 14 289 -6 49 -9 55 -37 65 -17 6 -64 28 -104 48 l-73 38 -184 0 -185 0 0 -1000z"/>
<path d="M1350 1004 c0 -8 5 -12 10 -9 6 3 10 10 10 16 0 5 -4 9 -10 9 -5 0 -10 -7 -10 -16z"/>
</g>
<g id="layer124" fill="#d3c19e" stroke="none">
<path d="M0 1000 l0 -1000 1000 0 1000 0 0 1000 0 1000 -162 0 c-152 0 -164 -1 -202 -24 -23 -13 -65 -32 -94 -41 -29 -10 -57 -25 -62 -34 -13 -26 -17 -266 -4 -282 19 -23 63 -154 70 -206 3 -26 17 -66 30 -88 35 -58 44 -81 66 -169 22 -87 21 -168 -4 -192 -12 -12 -12 -31 0 -137 7 -67 18 -138 24 -158 18 -63 4 -169 -30 -225 -16 -27 -33 -60 -37 -74 -4 -14 -16 -31 -26 -38 -11 -7 -19 -19 -19 -27 0 -21 -22 -65 -32 -65 -5 0 -16 -7 -24 -15 -9 -8 -27 -15 -40 -15 -30 0 -74 -27 -74 -45 0 -7 -16 -22 -35 -34 -27 -16 -45 -19 -79 -15 -40 6 -45 4 -65 -24 -11 -17 -42 -40 -67 -52 -39 -19 -56 -22 -110 -16 -35 3 -94 9 -131 12 -95 8 -231 51 -258 80 -12 13 -25 24 -29 24 -3 0 -14 8 -24 17 -10 10 -44 42 -75 71 -31 30 -57 59 -57 66 0 7 -11 23 -25 36 -14 13 -25 27 -25 32 0 5 -11 34 -25 64 -14 30 -25 61 -25 70 0 8 -7 28 -15 45 -23 43 -18 189 7 236 11 19 25 69 32 111 11 63 11 86 0 132 -23 94 -21 100 58 268 11 23 36 56 56 72 27 22 40 43 48 78 7 26 21 81 33 122 15 55 20 101 19 175 0 55 -3 88 -5 73 -7 -48 -63 -30 -87 27 -18 43 -75 115 -91 115 -6 0 -26 11 -45 25 -33 24 -39 25 -197 25 l-163 0 0 -1000z"/>
<path d="M1246 1314 c-9 -24 -7 -54 4 -54 12 0 30 33 30 54 0 21 -26 21 -34 0z"/>
<path d="M844 1304 c3 -9 6 -22 6 -30 0 -19 39 -18 46 1 8 20 -13 45 -38 45 -14 0 -18 -5 -14 -16z"/>
<path d="M1060 1239 c0 -24 23 -21 28 4 2 10 -3 17 -12 17 -10 0 -16 -9 -16 -21z"/>
<path d="M1244 1008 c-4 -7 -3 -8 4 -4 12 7 16 16 8 16 -3 0 -8 -5 -12 -12z"/>
<path d="M994 907 c-37 -39 -100 -75 -112 -62 -6 6 -42 -14 -42 -23 0 -4 12 -13 28 -20 15 -7 38 -19 52 -27 15 -10 37 -13 55 -10 48 9 146 11 151 3 6 -9 80 -10 112 -2 26 7 27 42 2 54 -8 4 -25 12 -37 18 -12 7 -29 9 -38 6 -8 -4 -31 1 -50 10 -29 14 -36 24 -41 56 -9 53 -29 52 -80 -3z m-49 -67 c3 -5 1 -10 -4 -10 -6 0 -11 5 -11 10 0 6 2 10 4 10 3 0 8 -4 11 -10z"/>
<path d="M983 672 c-4 -17 -13 -22 -39 -22 -18 0 -36 5 -39 10 -7 12 -85 14 -85 3 0 -5 9 -22 20 -40 13 -23 29 -34 55 -39 19 -3 38 -10 41 -15 3 -5 14 -9 24 -9 10 0 20 -5 22 -12 3 -8 11 -9 24 -3 10 4 50 9 87 10 42 2 74 8 85 17 9 8 25 18 35 21 19 7 24 29 5 25 -24 -5 -96 31 -103 52 -7 21 -42 26 -80 11 -12 -5 -25 -4 -33 2 -10 8 -14 5 -19 -11z"/>
</g>
<g id="layer125" fill="#cdcdb7" stroke="none">
<path d="M0 1000 l0 -1000 1000 0 1000 0 0 1000 0 1000 -162 0 c-152 0 -164 -1 -202 -24 -23 -13 -65 -32 -94 -41 -29 -10 -57 -25 -62 -35 -13 -24 -15 -266 -3 -282 17 -21 61 -151 68 -204 4 -28 22 -73 41 -104 62 -102 93 -305 52 -346 -12 -12 -12 -31 0 -137 7 -67 18 -139 24 -159 19 -64 5 -166 -29 -223 -17 -27 -34 -61 -38 -75 -4 -14 -16 -31 -26 -38 -11 -7 -19 -19 -19 -27 0 -21 -22 -65 -32 -65 -5 0 -16 -7 -24 -15 -9 -8 -28 -15 -43 -15 -26 0 -71 -31 -71 -49 0 -5 -16 -18 -35 -30 -27 -16 -45 -19 -79 -15 -40 6 -45 4 -65 -24 -11 -17 -42 -40 -67 -53 -49 -23 -43 -23 -259 0 -103 11 -211 46 -240 77 -12 13 -25 24 -28 24 -4 0 -31 23 -62 52 -31 28 -65 58 -75 65 -11 8 -20 22 -20 31 0 9 -10 27 -23 41 -26 28 -77 139 -77 165 0 9 -7 31 -16 47 -24 47 -18 180 12 245 32 71 42 193 20 257 -18 55 -16 69 28 170 43 99 73 145 106 162 20 10 29 24 32 47 3 18 16 74 29 123 17 64 23 110 21 161 -3 69 -3 70 -35 80 -23 6 -38 20 -52 50 -26 52 -74 114 -89 114 -7 0 -27 11 -46 25 -33 24 -39 25 -197 25 l-163 0 0 -1000z"/>
<path d="M860 1020 c0 -5 5 -10 11 -10 5 0 7 5 4 10 -3 6 -8 10 -11 10 -2 0 -4 -4 -4 -10z"/>
<path d="M973 853 c-6 -5 -13 -14 -15 -22 -2 -11 15 -15 80 -16 82 -3 95 2 67 25 -12 10 -15 10 -15 0 0 -9 -4 -9 -12 -2 -18 14 -90 24 -105 15z"/>
</g>
<g id="layer126" fill="#dbdcd5" stroke="none">
<path d="M1645 1980 c-16 -10 -55 -29 -87 -41 -31 -12 -62 -27 -67 -33 -15 -18 -27 -262 -14 -278 17 -20 60 -149 72 -210 5 -30 24 -77 41 -105 59 -95 93 -309 55 -347 -20 -19 -19 -48 7 -191 12 -66 21 -155 20 -197 -1 -65 -6 -84 -31 -126 -16 -27 -32 -59 -36 -71 -3 -11 -17 -33 -29 -49 -13 -15 -29 -48 -37 -74 -13 -47 -14 -48 -52 -48 -45 0 -94 -26 -103 -53 -8 -27 -68 -49 -110 -41 -31 6 -39 2 -83 -39 -58 -54 -136 -78 -198 -59 -21 6 -72 14 -113 18 -90 8 -224 48 -251 75 -10 10 -26 19 -34 19 -8 0 -21 12 -29 27 -8 16 -40 48 -70 72 -31 24 -56 52 -56 62 0 10 -5 21 -11 24 -15 10 -78 145 -85 186 -4 19 -12 40 -18 48 -17 21 -9 209 9 238 17 26 20 102 5 153 -27 91 -44 331 -27 365 6 11 11 34 12 50 1 17 7 67 14 112 13 93 11 103 -46 166 -19 22 -39 52 -45 68 -6 17 -17 29 -28 29 -10 0 -23 7 -30 15 -7 8 -21 15 -32 15 -11 0 -24 11 -31 28 -14 34 -93 128 -113 136 -12 5 -14 -136 -14 -959 l0 -965 1000 0 1000 0 0 1000 0 1000 -162 0 c-145 0 -166 -2 -193 -20z"/>
</g>
<g id="layer127" fill="#e0e1d4" stroke="none">
<path d="M331 514 c0 -11 3 -14 6 -6 3 7 2 16 -1 19 -3 4 -6 -2 -5 -13z"/>
<path d="M753 43 c4 -3 10 -3 14 0 3 4 0 7 -7 7 -7 0 -10 -3 -7 -7z"/>
<path d="M833 33 c4 -3 10 -3 14 0 3 4 0 7 -7 7 -7 0 -10 -3 -7 -7z"/>
<path d="M893 23 c9 -2 23 -2 30 0 6 3 -1 5 -18 5 -16 0 -22 -2 -12 -5z"/>
<path d="M1050 10 l-55 -7 50 -1 c28 -1 57 3 65 8 8 5 11 9 5 8 -5 -1 -35 -4 -65 -8z"/>
</g>


</svg>