<svg width="256" height="265" viewBox="0 0 425 425" fill="none" xmlns="http://www.w3.org/2000/svg">
<path d="M0.00012207 16.7867C0.00012207 7.95019 7.16357 0.786743 16.0001 0.786743H411.636C420.473 0.786743 427.636 7.95019 427.636 16.7867V408.215C427.636 417.052 420.473 424.215 411.636 424.215H16.0001C7.16354 424.215 0.00012207 417.052 0.00012207 408.215V16.7867Z" fill="#00B0F0"/>
<path d="M0 25.6072C0 16.7706 7.16344 9.60718 16 9.60718H411.636C420.473 9.60718 427.636 16.7706 427.636 25.6072V399.393C427.636 408.229 420.473 415.393 411.636 415.393H16C7.16342 415.393 0 408.229 0 399.393V25.6072Z" fill="#121212"/>
<rect x="224.244" y="285.452" width="120.636" height="12.0476" fill="#868686" fill-opacity="0.4"/>
<rect x="224.244" y="279.429" width="120.636" height="12.0476" fill="#C4C4C4"/>
<path d="M233.654 116.5H256.859V244.143H233.654V116.5ZM286.269 200.729H279.314V178.327H285.225C288.819 178.327 292.442 178.574 294.297 178.327C297.372 177.917 299.76 176.807 302.092 174.157C304.087 171.89 304.374 166.914 304.721 165.182C305.084 162.598 305.084 160.181 305.084 156.842C305.084 153.502 303.845 149.145 303.498 147.414C302.727 145.192 301.105 142.931 300.178 142.065C299.25 141.199 296.514 139.753 294.659 139.505C292.921 139.258 290.417 138.711 286.592 138.711H279.314V116.5H297.222C305.451 116.5 312.116 117.366 317.216 119.097C322.316 120.829 326.257 123.488 329.039 127.075C331.589 130.415 333.269 134.558 334.081 139.505C335.008 144.453 335.472 150.823 335.472 158.615C335.472 168.633 334.602 176.364 332.864 181.806C330.43 188.732 323.359 193.432 317.216 196.277L335.472 244.143H301.568L286.269 200.729Z" fill="#00B0F0"/>
<path d="M89.6728 177.657V172.874L114.038 172.967L181.815 291.839V297.5H155.747L89.6728 177.657ZM160.96 212.591V172.967H187.029V263.537L160.96 212.591ZM82.7558 201.27L108.824 252.216V297.5H82.7558V201.27Z" fill="#00B0F0"/>
</svg>
